<?xml version="1.0" encoding="utf-8"?>
<!-- Generator: Adobe Illustrator 16.0.0, SVG Export Plug-In . SVG Version: 6.00 Build 0)  -->
<!DOCTYPE svg PUBLIC "-//W3C//DTD SVG 1.1//EN" "http://www.w3.org/Graphics/SVG/1.1/DTD/svg11.dtd">
<svg version="1.1" xmlns="http://www.w3.org/2000/svg" xmlns:xlink="http://www.w3.org/1999/xlink" x="0px" y="0px" width="2000px"
	 height="2000px" viewBox="0 0 2000 2000" enable-background="new 0 0 2000 2000" xml:space="preserve">
<g id="icons">
	
		<path id="key" fill="none" stroke="#000000" stroke-width="2" stroke-linecap="round" stroke-linejoin="round" stroke-miterlimit="10" d="
		M1074.559,119.986c0,0,2.43-5.152,7.43-2.535c4.686,2.454,4.198,11.534-3.783,11.218c-7.888-0.311-8.458-9.167-5.811-12.869
		c2.576-3.606,10.327-9.3,20.122,1.115c9.874,10.5-0.337,21.196-3.207,23.421c-4.452,3.451-3.287,10.19-3.2,15.146
		c0.194,10.973,0.045,19.109-2.415,19.265c-1.781,0.111-7.854-33.183-3.622-33.313c5.124-0.158-0.371,35.375-0.371,35.375
		s-6.213-3.062-6.896-8.61c-0.363-2.947,2.193-7.438,2.193-7.438l-3.635-8.192c0,0,4.648-7.792-1.139-11.007
		c-2.895-1.608-7.674-4.287-8.743-11.819c-1.88-13.256,10.025-18.257,10.025-18.257"/>
	
		<path id="star" fill="none" stroke="#000000" stroke-width="2" stroke-linecap="round" stroke-linejoin="round" stroke-miterlimit="10" d="
		M1400.082,169.467c0,0,8.871-26.114,13.371-37.36c4.498-11.245,9.494-24.739,9.494-24.739s9.496,19.492,13.496,33.486
		c3.996,13.994,7.994,28.488,7.994,28.488s-18.116-11.496-28.611-17.494c-10.495-5.997-23.365-18.492-23.365-18.492
		s17.742-4.373,29.988-4.872c12.244-0.5,31.235,1.874,31.235,1.874s-16.128,13.282-25.363,20.741
		c-9.747,7.872-22.491,14.619-22.491,14.619"/>
	
		<path id="gift" fill="none" stroke="#000000" stroke-width="2" stroke-linecap="round" stroke-linejoin="round" stroke-miterlimit="10" d="
		M1743.72,142.371c0,0-1.379-10.29,0.379-10.444c5.563-0.488,30.23-0.725,40.966-7.584c4.952-3.164,7.703-7.84,4.265-10.178
		c-4.586-3.119-28.645,4.429-27.765,19.605c0.778,13.441-0.481,30.937,1.387,33.366c1.32,1.715,12.897,2.656,13.826,0.679
		c1.5-3.199,0.896-29.328,1.02-34.943c0.228-10.425-20.469-22.971-26.384-20.495c-4.744,1.986,0.208,6.662,5.181,10.591
		c13.754,10.866,32.432,8.895,36.999,9.353c1.512,0.152,0.375,8.325,0.275,11.691c-0.075,2.568-46.493-2.533-46.644,0.447
		c-0.188,3.668-0.517,26.677,2.408,27.263c2.927,0.585,40.615,3.123,40.615,0c0-3.122,0.883-21.453,0.883-21.453"/>
	
		<path id="creditcard" fill="none" stroke="#000000" stroke-width="2" stroke-linecap="round" stroke-linejoin="round" stroke-miterlimit="10" d="
		M1575.168,148.331c0,0,2.4-0.042,3.995-0.291c0.916-0.143,0.503-2.352,0.527-3.14c0.036-1.162-7.155-0.11-7.677-0.063
		c-1.473,0.13-0.507,7.777,0.557,7.683c1.799-0.159,10.909,0.274,10.666-2.489c-0.087-0.982,0.141-8.919-1.521-8.834
		c-3.608,0.184-16.51,1.025-16.422,2.007c0.086,0.982,2.08,23.683,2.096,24.682c0.046,2.841,58.994-4.318,60.479-4.397
		c2.997-0.161-2.263-32.368-2.739-34.282c-0.875-3.511-57.109,4.169-58.753,4.314c-0.432,0.038-1.596,3.126-1.439,5.156
		c0.089,1.143,15.281-4.929,34.013,2.629c16.926,6.829,23.333,17.91,23.333,17.91"/>
	
		<path id="call" fill="none" stroke="#000000" stroke-width="2" stroke-linecap="round" stroke-linejoin="round" stroke-miterlimit="10" d="
		M1256.237,337.653c0,0,9.276,1.237,6.232-6.17c-3.624-8.817-8.27,2.916-11.312-3.175c-3.046-6.087-5.379-15.932-5.177-19.586
		c0.203-3.653,9.901,1.417,7.003-7.509c-2.978-9.167-18.996-4.55-11.468,21.515c10.172,35.222,46.169,17.546,37.651-12.178
		c-9.54-33.288-56.019-22.633-55.411,6.596c0.631,30.264,29.836,29.33,29.836,29.33"/>
	
		<path id="delivery" fill="none" stroke="#000000" stroke-width="2" stroke-linecap="round" stroke-linejoin="round" stroke-miterlimit="10" d="
		M1090.5,335.5c0,0,0-31.941,0-34.078c0-2.138-50.016-0.329-53.306-0.329c-3.288,0-1.471,36.59-1.308,38.234
		c0.164,1.644,9.932,1.809,10.078-0.504c0.625-9.957,17.133-10.93,17.42-0.766c0.112,3.952,0.14,10.479-8.115,10.066
		c-8.523-0.424-7.596-14.384,0.216-14.464c8.533-0.094,8.064,5.84,11.417,5.84c7.48,0,30.046,0,32.537,0
		c2.493,0,0.576-9.35,11.507-9.162c10.545,0.189,9.216,17.187-0.192,16.852c-9.492-0.335-8.438-13.174,0-13.078
		c6.33,0.074,7.567,6.965,11.021,6.961c6.026-0.006,4.128-12.094,3.963-13.739c-0.165-1.643-13.172-18.612-15.968-18.941
		c-2.951-0.346-14.142-1.396-14.142,1.236c0,3.128-0.221,25.848-0.221,25.848"/>
	
		<path id="mail" fill="none" stroke="#000000" stroke-width="2" stroke-linecap="round" stroke-linejoin="round" stroke-miterlimit="10" d="
		M1393.957,311.676c0,0,17.869,15.469,26.803,15.469c8.135,0,32.195-12.144,32.538-18.135c0.268-4.668-6.934-4.001-35.471-4.001
		s-29.872-1.599-29.872,6.135c0,7.733-2,32.938,3.734,33.337c6.652,0.465,55.887,0.491,60.541,0.133
		c3.469-0.266,2.758-29.088,2.758-29.088"/>
	
		<path id="like" fill="none" stroke="#000000" stroke-width="2" stroke-linecap="round" stroke-linejoin="round" stroke-miterlimit="10" d="
		M1587.177,309.978c0,0,1.355-3.456,3.462-7.331c4.24-7.799,7.775-16.643,9.56-16.785c2.974-0.237,3.483,2.11,3.759,6.052
		c0.525,7.538-5.807,16.425-1.926,16.505c6.54,0.133,17.795,1.481,17.694,7.086c-0.06,3.341-1.901,1.801-2.102,4.304
		c-0.153,1.907,3.136,1.168,2.335,5.706c-0.515,2.92-2.503,2.004-3.037,4.005c-0.533,2.002,1.302,2.002,0.2,4.604
		c-1.072,2.537-2.668,1.935-2.803,3.004c-0.133,1.068,0.768,1.869,0.168,3.871c-0.792,2.636-6.774,3.136-15.985,2.735
		c-10.01-0.434-12.48-0.601-13.414-6.606c-0.934-6.007,1.159-23.501-1.297-23.501c-4.003,0-14.139-0.748-14.34,2.455
		c-0.468,7.5-1.282,25.551,2.121,25.75c2.375,0.141,10.103,0.329,10.103,0.329"/>
	
		<path id="search" fill="none" stroke="#000000" stroke-width="2" stroke-linecap="round" stroke-linejoin="round" stroke-miterlimit="10" d="
		M1096.67,666.947c0,0,2.659,2.888-7.244,7.427c-6.882,3.153-9.628-2.752-3.942-5.411c6.537-3.057,20.727-14.764,13.846-29.891
		c-10.637-23.385-49.814-11.973-36.128,15.404c8.16,16.321,24.384,6.615,29.662,15.358c4.401,7.29,15.955,25.72,10.591,27.921
		c-6.807,2.792-13.479-26.546-18.981-28.334c-3.557-1.156-19.53,0.275-25.491-13.479c-6.474-14.939,3.632-23.92,10.178-26.958
		c10.271-4.769,21.014,0.589,25.583,10.636c6.235,13.709-8.161,21.825-8.161,21.825"/>
	
		<path id="new" fill="none" stroke="#000000" stroke-width="2" stroke-linecap="round" stroke-linejoin="round" stroke-miterlimit="10" d="
		M1054.916,494.838c0,0,2.031-4.315,5.18-4.112c3.147,0.203-0.004,10.082-0.004,10.082s2.999-11.048,6.249-11.048
		c3.25,0-1.98,10.865,4.672,10.865c7.718,0,11.095-9.746,7.312-10.355c-3.611-0.583-6.423,3.503-4.672,7.386
		c1.533,3.399,7.326,4.713,10.054,0c2.514-4.34,3.58-6.828,6.018-6.624c2.437,0.2-2.209,9.622,1.752,9.824
		c3.96,0.203,5.712-8.835,5.712-8.835s-2.615,9.063,2.97,9.063c5.585,0,7.284-10.28,5.802-11.832
		c-2.201-2.307-4.854,0.282-2.621,2.516c2.234,2.234,6.599,1.35,6.813-4.515c0.18-4.934-3.093-23.395-26.611-25.681
		c-27.968-2.718-42.774,28.853-29.899,49.932c12.876,21.076,50.431,19.369,57.665-9.253"/>
	
		<path id="time" fill="none" stroke="#000000" stroke-width="2" stroke-linecap="round" stroke-linejoin="round" stroke-miterlimit="10" d="
		M1256.779,486.767c0,0,16.322-10.631-1.191-10.82c-17.055-0.184-7.269,7.25-4.406,10.231c2.862,2.982,1.549,6.084-2.027,3.221
		c-3.578-2.862-32.259-31.901,5.903-31.901s11.032,28.323-0.178,36.673c-11.211,8.348-34.942,36.596,1.312,36.371
		c38.34-0.237,5.907-37.31-0.145-31.992c-0.731,0.643-0.555,3.771-0.451,5.519c0.299,5.067,9.491,8.883,12.922,12.315
		c4.054,4.055,1.03,9.508-12.685,9.508c-13.714,0-17.987-4.422-12.64-9.361c4.709-4.353,9.278-7.756,9.278-7.756"/>
	
		<path id="no" fill="none" stroke="#000000" stroke-width="2" stroke-linecap="round" stroke-linejoin="round" stroke-miterlimit="10" d="
		M1434.15,520.945c0,0-11.966-24.552-22.281-34.386c-6.766-6.449-10.866,5.021-10.109,16.78c0.663,10.312,5.186,12.162,8.871,10.179
		c11.623-6.259,35.967-43.326,35.967-43.326c-11.209,11.966-36.763,46.223-39.681,37.343c-1.581-4.814-2.086-23.405,4.333-16.986
		c6.419,6.418,22.557,36.861,22.557,36.861"/>
	
		<path id="yes" fill="none" stroke="#000000" stroke-width="2" stroke-linecap="round" stroke-linejoin="round" stroke-miterlimit="10" d="
		M1582.064,493.3c0,0,15.75,9.559,15.553,16.848c-0.161,5.971-6.824,5.132-6.131-0.756c0.413-3.507,7.196-12.898,16.781-22.764
		c10.688-11.003,26.683-21.182,26.683-21.182c-23.52,9.032-43.634,32.042-47.314,42.295c-3.852,10.729,12.173,15.816,14.235,5.295
		c2.996-15.277-23.726-25.239-23.726-25.239"/>
	
		<path id="info" fill="none" stroke="#000000" stroke-width="2" stroke-linecap="round" stroke-linejoin="round" stroke-miterlimit="10" d="
		M1760.582,509.965c0,0,5.453,0.168,9.772-8.656c2.931-5.986,4.073-11.975,4.073-11.975s-3.827,20.555,5.978,23.986
		c10.437,3.652,21.693-7.862,20.372-22.138c-1.324-14.274-12.15-20.971-20.312-21.495c-7.597-0.491-11.195,10.021-4.35,10.663
		c6.173,0.578,8.91-14.366-10.576-10.198c-16.921,3.621-25.384,27.705-16.512,42.494c9.721,16.207,29.661,17.342,41.061,7.17"/>
	
		<path id="agree" fill="none" stroke="#000000" stroke-width="2" stroke-linecap="round" stroke-linejoin="round" stroke-miterlimit="10" d="
		M1786.234,308.58c0,0,12.46,17.745,13.488,19.266c1.023,1.519,9.469-5.489,10.837-6.41c1.369-0.926-14.415-21.221-16.002-23.249
		c-0.863-1.1-7.086,3.791-13.068,8.124c-6.404,4.637-12.196,7.244-16.323,13.021c-4.042,5.661-11.826,7.977-8.984-2.202
		c2.364-8.47,12.286-12.377,18.888-5.592c6.34,6.516,22.993,20.975,16.606,26.259c-2.656,2.197-7.092-1.915-7.092-1.915
		s5.319,4.549,1.539,7.808c-3.946,3.402-7.591-1.067-7.591-1.067s3.988,4.126,0.822,6.676c-2.635,2.121-5.785-0.956-5.785-0.956
		s2.964,2.914-1.736,5.49c-3.193,1.746-9.047-0.14-6.55-3.784c4.049-5.913,7.634-1.002,4.877,2.543
		c-2.769,3.56-16.373-3.008-13.287-7.35c5.699-8.013,10.327-2.335,6.399,2.323c-4.67,5.543-18.028-4.057-13.864-8.946
		c9.025-10.6,12.373-2.046,4.837,5.089c-3.977,3.763-13.946-6.502-11.771-10.898c3.653-7.385,11.841-2.858,5.147,3.609
		c-3.602,3.478-11.093-5.236-9.438-8.022c1.404-2.366,3.366-6.862,8.593-12.627c5.229-5.766,8.889-8.384,6.749-10.297
		c-4.103-3.672-9.071-9.021-11.019-6.432c-3.066,4.075-17.449,20.236-15.629,21.835c2.532,2.227,8.122,5.723,8.122,5.723"/>
	
		<path id="_x3F_" fill="none" stroke="#000000" stroke-width="2" stroke-linecap="round" stroke-linejoin="round" stroke-miterlimit="10" d="
		M1258.733,684.33c0,0-10.087-0.926-9.613,4.831c0.297,3.606,5.366,3.475,6.279,0.634c0.911-2.844-3.194-5.483-10.31-6.924
		c-5.874-1.188-13.216-4.83-17.905-16.641c-4.764-11.999-1.519-36.2,21.358-38.879c22.217-2.602,32.007,13.671,29.167,32.365
		c-3.07,20.212-24.64,22.431-27.248,17.525c-2.61-4.904,0.619-10.088,8.4-17.961c9.565-9.675,3.275-20.299-6.03-20.438
		c-7.441-0.112-10.88,4.057-11.127,8.684c-0.264,4.944,2.616,6.177,2.616,6.177"/>
	
		<path id="box" fill="none" stroke="#000000" stroke-width="2" stroke-linecap="round" stroke-linejoin="round" stroke-miterlimit="10" d="
		M1419.227,682.626c0,0,0.377,3.567-0.274,3.439c-1.233-0.248-6.63-0.81-6.794-2.126c-0.164-1.317-1.18-6.677,0.467-6.265
		c2.443,0.61,9.819,1.516,9.903,2.751c0.12,1.807,0.987,10.728-0.181,10.409c-2.984-0.813-35.087-9.063-37.212-9.7
		c-2.122-0.637-2.548-34.827-2.548-36.525c0-1.7,39.055-9.898,41.178-10.536c2.125-0.637,34.827,9.067,36.314,9.706
		c1.485,0.636,1.203,27.678,1.203,29.375c0,1.699-32.617,16.266-34.354,17.037c-0.954,0.426-1.915-33.798-2.338-35.073
		c-0.426-1.274-14.056-4.19-15.543-4.401c-1.486-0.213-1.238,9.316-1.238,10.59c0,1.274-8.354-1.226-9.627-1.65
		c-1.424-0.475-0.487-11.391-0.275-12.241c0.213-0.849,31.049-8.239,32.322-8.664c1.274-0.424,9.19,1.988,10.041,2.2
		c0.85,0.214-26.684,7.151-26.684,7.151"/>
	
		<path id="lock" fill="none" stroke="#000000" stroke-width="2" stroke-linecap="round" stroke-linejoin="round" stroke-miterlimit="10" d="
		M1606.616,656.08c0,0-14.765,0.143-17.33,0.047c-1.237-0.047-2.616-18.594,10.315-18.409c14.442,0.207,11.142,18.226,12.173,18.226
		c2.935,0,9.56-0.481,9.789,2.2c0.267,3.111,1.077,26.614,0.114,26.614c-3.119,0-11.829,0.062-14.03,0
		c-4.951-0.138-10.446-3.444-10.04-6.189c0.551-3.713-2.499-4.7-2.683-8.184s1.679-5.295,5.365-5.295
		c3.438,0,4.623,1.591,4.882,4.951c0.275,3.576-3.301,4.746-2.751,8.046c0.332,1.989-3.071,6.855-10.04,6.671
		c-6.968-0.184-12.539-0.205-13.823-0.205s-1.374-28.061,0.643-27.693s4.209,0.22,4.218-1.65c0.022-4.974-1.01-22.235,15.84-22.305
		c18.706-0.076,17.398,19.395,17.398,19.395"/>
	
		<path id="discount" fill="none" stroke="#000000" stroke-width="2" stroke-linecap="round" stroke-linejoin="round" stroke-miterlimit="10" d="
		M1776.469,644.32c0,0-10.142,1.761-11.489,2.097c-1.346,0.338-22.899,24.247-23.573,25.426
		c-0.674,1.18,17.512,16.333,18.521,17.343c1.012,1.012,24.079-25.34,24.922-26.35c0.841-1.011,1.047-11.297-0.129-12.738
		c-1.091-1.338-9.051-4.387-10.816,0.361c-1.837,4.934,4.752,7.327,6.651,3.452c2.021-4.126-2.706-17.231,6.916-20.525
		c9.346-3.198,10.427,5.876,17.583,2.255"/>
	
		<path id="trolley" fill="none" stroke="#000000" stroke-width="2" stroke-linecap="round" stroke-linejoin="round" stroke-miterlimit="10" d="
		M1220.654,170.462c0,0-1.826-2.831,1.88-4.916c3.49-1.964,7.747,5,3.31,8.305c-6.265,4.667-12.998-3.678-6.78-9.606
		c8.118-7.74,5.897-10.873,2.747-38.316c-2.024-17.64-12.29-10.843-4.916-0.578c9.461,13.172,17.062,27.038,22.122,27.327
		c4.12,0.236,32.113,0.145,38.171,0.145c1.656,0,9.463-22.424,5.205-23.134c-3.47-0.578-56.389-6.506-56.1-3.036
		c0.916,10.989,3.759,25.159,8.097,29.207c4.416,4.121,30.697,3.96,39.903,7.029c8.332,2.777,5.6,13.502-1.876,11.768
		c-5.292-1.231-4.611-10.25,1.108-8.82c3.084,0.771,1.638,4.337,1.638,4.337"/>
	
		<path id="hanger" fill="none" stroke="#000000" stroke-width="2" stroke-linecap="round" stroke-linejoin="round" stroke-miterlimit="10" d="
		M1090.083,825.206c0,0,0-7.325-5.926-5.433c-4.654,1.486-2.633,12.512,3.045,15.392c4.407,2.235,30.042,9.958,30.207,14.897
		c0.164,4.938-7.902,4.031-32.759,4.031c-24.856,0-31.935,0.248-31.935-3.865c0-4.116,28.066-14.569,28.066-14.569"/>
	
		<path id="tshirt" fill="none" stroke="#000000" stroke-width="2" stroke-linecap="round" stroke-linejoin="round" stroke-miterlimit="10" d="
		M1246.396,820.587c0,0-3.362,4.954,8.328,4.474c10.288-0.422,8.597-7.469-0.424-8.598c-10.257-1.281-32.556,9.726-32.556,9.726
		s0.846,3.241,2.396,6.06c1.551,2.82,3.806,5.075,3.806,5.075s9.866-4.651,9.866,3.382c0,8.034-0.846,25.228-0.846,25.228
		s7.188,1.832,16.49,2.113c11.13,0.337,17.476-2.677,17.476-2.677s-2.596-22.538-3.524-27.483c-1.268-6.765,9.585-2.255,9.585-2.255
		s1.993-1.712,3.805-5.637c1.691-3.665,1.832-5.073,1.832-5.073s-3.676-2.715-9.595-4.83c-5.92-2.113-8.935-2.812-8.935-2.812"/>
	
		<path id="handbag" fill="none" stroke="#000000" stroke-width="2" stroke-linecap="round" stroke-linejoin="round" stroke-miterlimit="10" d="
		M1614.092,1186.433c0,0-3.722,0.399-8.812,0.116c-4.882-0.272-4.321-1.3-3.303-12.874c0.733-8.35,9.422-24.239,17.666-4.316
		c3.52,8.505,3.442,13.255,3.748,20.206c0.245,5.566,1.728,6.1,1.901,8.736c0.262,3.984-2.394,4.263-4.691,4.263
		c-3.16,0-4.797-1.452-4.403-4.807c0.383-3.267,1.81-3.46,1.81-12.716c0-25.052-18.275-35.188-20.956-9.604
		c-2.203,21.034-4.403,17.146-4.978,22.227c-0.419,3.71,2.106,4.899,4.498,4.99c2.395,0.09,5.699-2.227,4.5-5.353
		c-1.148-2.993-1.035-5.342-1.665-8.434c-1.054-5.171-18.15-4.358-17.384,9.25c0.673,11.964,5.405,14.657,26.195,14.873
		c22.149,0.232,24.758-2.54,26.358-13.966c1.628-11.612-7.391-12.708-7.391-12.708"/>
	
		<path id="heels" fill="none" stroke="#000000" stroke-width="2" stroke-linecap="round" stroke-linejoin="round" stroke-miterlimit="10" d="
		M1595.237,824.295c0,0,3.321,1.034,5.503,9.078c3.208,11.828,9.034,18.368,11.675,19.405c2.639,1.037-3.144,9.615-11.471-6.601
		c-7.382-14.371-8.015-17.961-10.089-22.298c-2.074-4.336-4.714-4.949-4.714-4.949s-3.629,0.048-5.468,7.589
		c-2.028,8.317,2.481,10.779,3.676,24.797c0.577,6.766,1.98,14.613,1.98,14.613s1.349-9.979,1.65-14.613
		c0.942-14.566,5.138-11.313,6.363,0.188c0.57,5.345-0.472,20.066,28.505,13.906c6.309-1.341,0.628-7.73-5.029-9.992"/>
	
		<path id="umbrella" fill="none" stroke="#000000" stroke-width="2" stroke-linecap="round" stroke-linejoin="round" stroke-miterlimit="10" d="
		M1765.159,864.645c0,0-2.112,6.209,2.945,6.14c6.14-0.084,5.971-12.364,5.971-27.506c0-15.141,0.336-29.273,0.336-29.273
		s-6.551,5.384-16.505,8.412c-9.959,3.027-13.103,13.459-13.103,13.459s3.668-3.701,11.266-3.701c7.599,0,8.91,3.701,8.91,3.701
		s1.048-4.037,9.693-4.374c8.647-0.336,10.218,4.374,10.218,4.374s1.569-4.205,10.215-4.205c8.647,0,10.768,3.7,10.768,3.7
		s-1.067-10.936-10.763-13.627c-13.15-3.651-15.146-4.711-15.146-4.711"/>
	
		<path id="shoe" fill="none" stroke="#000000" stroke-width="2" stroke-linecap="round" stroke-linejoin="round" stroke-miterlimit="10" d="
		M1125.087,1029.646c0,0,0.413-3.025-5.639-3.852c-6.052-0.825-14.58-5.363-16.505-2.751c-1.926,2.613-2.201,4.54,0.138,4.54
		c2.338,0,5.364-8.391-1.651-8.803c-7.015-0.413-11.141,2.612-9.628,4.676c1.513,2.063,11.188-3.162,5.915-6.326
		c-5.502-3.302-16.505-2.89-16.505,0c0,2.888,8.94,1.513,10.454-0.825c1.513-2.339,1.375-4.952-5.502-12.517
		c-6.877-7.565-16.23,4.401-19.806,6.877c-3.576,2.476,1.708,6.578,4.814,5.776c4.264-1.101,15.955-4.814,16.23-8.115
		s-5.089-11.278-9.215-11.416c-4.126-0.137-12.241,9.078-16.367,10.041c-4.019,0.938-9.342-0.954-8.94,4.264
		c0.413,5.364-1.513,9.49-1.1,13.754c0.413,4.265,0.825,11.691,1.513,13.342c0.688,1.651,8.157,2.604,19.256,3.714
		c12.379,1.238,26.821,5.364,38.374,2.476c11.554-2.888,15.441-7.25,15.268-9.078c-0.275-2.888-2.338-2.476-6.052-0.412
		c-3.714,2.063-16.505,4.127-24.758,4.127s-17.287-2.205-22.419-2.89c-8.253-1.1-16.093-3.025-16.093-3.025"/>
	
		<path id="belt" fill="none" stroke="#000000" stroke-width="2" stroke-linecap="round" stroke-linejoin="round" stroke-miterlimit="10" d="
		M1406.369,844.64c0,0-2.646-10.892-0.312-14.004c2.334-3.11,13.202-12.002,28.475-10.892c17.115,1.244,19.786,18.501,19.761,25.829
		c-0.078,21.394-32.83,19.215-37.032,19.215c-1.636,0-3.36-1.056-3.578-3.578c-0.39-4.513-11.208-6.929-11.203-3.423
		c0.005,4.057,10.354-0.111,11.125-3.191c0.233-0.933,1.712-5.679-1.089-5.834c-3.496-0.195-11.429,0.094-13.148,0.232
		c-0.981,0.08-0.307,18.128,0,18.128c0.645,0,12.072,0.102,17.115,0.311c2.752,0.114-1.164-16.609,2.412-16.804
		c4.279-0.233,30.185,1.245,29.641-15.326c-0.266-8.099-10.27-11.952-16.961-11.824c-8.09,0.155-20.537,5.291-21.16,9.18
		c-0.623,3.89,0.935,9.491,16.338,10.27c15.404,0.778,19.742-7.856,12.76-9.49c-14.627-3.424-22.874,4.2-22.874,4.2"/>
	
		<path id="watch" fill="none" stroke="#000000" stroke-width="2" stroke-linecap="round" stroke-linejoin="round" stroke-miterlimit="10" d="
		M1424.904,1022.563c0,0-0.786,0.054-1.497,0.054c-0.71,0-1.185-0.123-1.185-0.123s-0.036-1.452-0.036-3.131
		c0-0.95-0.05-3.306-0.05-3.306s6.958-0.224,7.1,5.749c0.141,5.972-2.654,7.985-7.021,7.908c-3.845-0.068-6.815-2.497-6.843-7.81
		c-0.028-5.669,3.586-9.187,7.33-9.177c4.934,0.014,10.484,2.251,10.385,9.49c-0.097,7.235-4.205,9.227-5.779,10.112
		c-1.577,0.888-1.49,17.479-1.49,22.457s0.758,11.376-4.314,11.425c-5.072,0.047-3.885-7.774-3.934-11.046
		c-0.049-3.269,0.561-21.519-0.67-23.046c-1.232-1.526-5.191-2.587-5.284-9.563c-0.122-9.072,4.089-10.798,5.494-12.151
		c1.479-1.427,2.159-12.535,2.025-17.993c-0.147-5.995,1.362-3.259,2.522-4.965c0.648-0.954,0.954-3.281,0.954-3.281
		s0.401,2.117,1.183,3.299c0.281,0.424,4.635,2.575,4.596-0.78c-0.043-3.907-1.162-6.818-5.854-6.771
		c-4.693,0.046-5.96,3.526-5.912,6.466c0.047,2.94-0.541,6.033,3.426,6.136c2.859,0.074,6.666-0.504,6.713,2.34
		c0.045,2.677,0.066,14.778,0.066,14.778"/>
	
		<path id="hat" fill="none" stroke="#000000" stroke-width="2" stroke-linecap="round" stroke-linejoin="round" stroke-miterlimit="10" d="
		M1608.745,998.242c0,0,5.498,0.264,9.254,1.433c4.294,1.335,9.933,8.057-2.767,5.247c-10.781-2.385-12.022-6.965-18.128-7.251
		c-5.986-0.28-8.778,2.004-9.827,12.022c-1.085,10.355-3.436,14.598,6.011,18.032c8.28,3.012,33.49,3.723,34.063-4.293
		c0.413-5.789-6.204-1.003-14.979-0.573c-11.642,0.573-20.801-4.58-29.389-0.572c-4.495,2.099-11.067,7.919,1.717,12.882
		c12.787,4.961,42.268,6.439,51.906-2.481c11.544-10.686-7.123-15.615-7.123-15.615"/>
	
		<path id="dress" fill="none" stroke="#000000" stroke-width="2" stroke-linecap="round" stroke-linejoin="round" stroke-miterlimit="10" d="
		M1781.618,1004.153c0,0,2.706-11.77,3.025-14.12c0.321-2.35-2.691-2.76-3.331-0.732c-0.641,2.031-1.064,8.083-7.581,7.977
		s-7.393-5.721-7.885-7.198c-0.734-2.2-3.928-1.508-3.394,1.376c0.535,2.885,2.513,11.95,3.047,14.514
		c0.534,2.564,1.073,4.375,7.911,4.375c6.837,0,9.318-0.964,6.97-2.889c-2.352-1.923-13.53-1.26-14.396,1.146
		c-0.872,2.422-7.429,16.064-9.245,25.359c-1.816,9.296-1.907,12.694,0.442,13.335s4.706,1.102,3.852,1.743
		c-0.854,0.641,0.732,3.393,6.234,3.852c4.375,0.365,6.672-2.37,7.633-2.37c0.963,0,2.414,1.758,6.58,1.545
		c4.168-0.215,5.064-2.157,6.242-2.078c2.286,0.152,7.237-0.948,2.929-15.07c-3.971-13.013-7.337-20.354-7.337-20.354"/>
	
		<path id="tie" fill="none" stroke="#000000" stroke-width="2" stroke-linecap="round" stroke-linejoin="round" stroke-miterlimit="10" d="
		M1079.505,1178.07c0,0-6.478-1.529-9.16-10.057c-2.783-8.849,8.167-12.116,15.886-11.897c7.29,0.206,11.516,3.89,10.247,8.871
		c-2.751,10.798-17.706,13.726-23.039,1.856c-5.333-11.87,15.198-19.187,25.102-9.215c8.227,8.283-7.84,22.281-10.385,23.588
		c-2.757,1.416-5.845,0.757-6.673-5.985c-0.75-6.109,9.641-6.034,8.187,0.554c-1.169,5.295-0.481,17.329,0.826,30.465
		c1.079,10.852,2.514,14.57-1.099,19.043c-3.612,4.474-4.473,4.989-4.473,4.989s-6.537-3.613-6.365-9.807
		c0.172-6.191,2.136-17.351,2.652-23.028c0.516-5.676,1.513-13.617,1.513-13.617"/>
	
		<path id="pants" fill="none" stroke="#000000" stroke-width="2" stroke-linecap="round" stroke-linejoin="round" stroke-miterlimit="10" d="
		M1247.235,1162.74c0,0,3.419,0.615,6.123-2.63c2.354-2.825,3.138-5.026,3.138-5.026s-1.513,0-5.364-0.688
		c-4.889-0.873-6.641-1.271-6.641-1.271s-2.668,12.949-5.729,32.724c-3.06,19.775-6.748,43.476-6.748,43.476
		s1.727,1.019,7.376,1.725c5.65,0.705,9.103,0.472,9.103,0.472s8.163-38.258,11.928-57.835c1.177-6.121,4.237-14.125,1.412-14.28
		c-4.466-0.249-1.542,2.36-1.099,14.201c0.549,14.676,6.906,58.069,6.906,58.069s2.825,0.864,8.475,0.158
		c5.649-0.707,8.318-1.571,8.318-1.571s-2.825-26.837-4.866-46.925c-1.209-11.908-1.545-13.416-3.295-29.427
		c0,0-2.668,0.078-5.807,0.394c-3.139,0.313-5.854,0.367-5.854,0.367s-0.188,4.418,3.342,6.066c3.532,1.648,5.139,1.36,5.139,1.36"
		/>
	
		<path id="socks" fill="none" stroke="#000000" stroke-width="2" stroke-linecap="round" stroke-linejoin="round" stroke-miterlimit="10" d="
		M1275.229,1038.056c-7.653-3.305-15.342-12.025-16.619-17.822c-1.276-5.798-4.429-21.392-4.429-21.392s-3.639,0.353-5.612,0.468
		c-1.971,0.116-4.912,0.567-4.912,0.567s1.134,20.611,2,26.612c1.131,7.829-3.129,9.862,1.479,15.568
		c3.653,4.523,11.221,1.305,18.265,5.016c5.383,2.838,11.829,6.841,16.003,4.522c4.175-2.318,5.368-9.688-0.521-11.365
		c-5.392-1.536,0.187,8.811,4.436,1.566c4.589-7.825-5.933-9.089-10.264-11.654c-4.696-2.784-9.042-6.25-11.393-15.744
		c-2.436-9.827-4.175-23.048-4.175-23.048s-1.102-0.232-5.393,0s-5.392,0.695-5.392,0.695l0.086,3.044"/>
	
		<path id="glasses" fill="none" stroke="#000000" stroke-width="2" stroke-linecap="round" stroke-linejoin="round" stroke-miterlimit="10" d="
		M1394.782,1213.678c0.757-1.72,0.55-9.523,15.955-12.93c20.219-4.471,54.397-3.645,54.329-8.252
		c-0.039-2.684-3.645-4.058-16.711-3.852c-13.066,0.207-16.438,4.813-15.061,11.21c1.375,6.396,2.957,13.616,12.928,13.892
		c9.973,0.275,23.152-10.409,12.792-20.77c-6.12-6.119-20.7-6.395-29.571-6.395c-8.872,0-22.832,0.275-28.541,7.427
		c-8.411,10.541,2.889,19.394,14.168,19.394c11.277,0,10.453-7.703,11.347-13.342c0.895-5.64-1.994-10.797-13.754-11.416
		c-11.761-0.618-19.256,0-19.118,5.089c0.063,2.342,34.867,2.27,54.879,7.771c14.031,3.857,16.505,11.897,16.505,11.897"/>
	
		<path id="jacket" fill="none" stroke="#000000" stroke-width="2" stroke-linecap="round" stroke-linejoin="round" stroke-miterlimit="10" d="
		M1773.067,1209.481c0,0-0.618-7.083-4.951-5.089c-2.81,1.295-1.131,4.932,1.101,4.746c4.126-0.345,3.186-7.152,0.71-13.755
		c-1.131-3.019-4.857-10.05-6.234-13.938c-1.378-3.886-1.211-8.285-0.643-8.528c0.565-0.244,2.935-2.109,2.935-2.109
		s-1.935-2.102-2.905-2.587c-0.972-0.487,2.266-6.966,2.266-6.966c0.445-1.74-11.701,2.997-12.429,6.034
		c-0.729,3.037-3.279,17.856-4.979,25.872c-1.702,8.017-2.551,27.087-2.551,27.087s1.942,1.82,5.1,2.187
		c3.158,0.362,2.794-0.729,2.794-0.729l6.791-38.701c0,0,3.713,21.595-1.325,37.607c-1.345,4.273,12.938,6.309,15.973-5.354
		c4.64-17.812,17.547-57.135,1.52-57.565c-13.604-0.366-3.818,30.604,1.902,57.736c2.509,11.904,16.024,8.366,15.143,4.696
		c-5.017-20.891-0.89-37.809-0.89-37.809l5.951,39.146c0,0,3.035,1.577,5.587,1.213c2.551-0.364,4.494-2.064,4.494-2.064
		s-3.038-22.229-3.401-26.965c-0.365-4.736-5.708-27.938-6.922-29.395c-1.217-1.456-9.785-4.201-11.12-4.08
		c-1.336,0.122,1.168,4.165,2.569,6.969c0.916,1.835-2.385,2.935-2.385,2.935s1.926,0.732,3.653,1.708
		c1.483,0.837-2.044,7.236-3.379,10.396c-1.337,3.157-3.117,7.703-3.117,7.703"/>
	
		<path id="bio" fill="none" stroke="#000000" stroke-width="2" stroke-linecap="round" stroke-linejoin="round" stroke-miterlimit="10" d="
		M189.622,496.979c0,0,9.964-4.558,14.248-15.777c4.285-11.22-6.203-9.806-8.854,4.271c-2.653,14.076-0.426,24.471,6.764,16.831
		c8.63-9.169,3.304-14.63,0.81-11.933c-3.727,4.028,4.854,8.091,8.36,4.313c2.157-2.321,3.169-5.662,3.169-5.662
		s-7.012,18.743,1.483,15.709c3.555-1.269,8.39-15.229,6.27-9.642c-3.227,8.51,6.545,14.316,11.379,5.14
		c4.371-8.296-2.453-12.921-5.513-9.656c-2.185,2.33,0.742,6.067,7.281,3.775c3.701-1.297,10.375-4.252,4.875-17.577
		c-5.043-12.219-16.878-10.459-20.54-7.427c-3.21,2.658-3.233,6.213,0.229,6.28c4.769,0.091,8.077-12.212-3.782-13.617
		c-13.938-1.65-36.108,9.698-33.904,38.1c1.238,15.955,22.832,33.01,44.563,22.832c17.437-8.166,16.987-20.906,16.987-20.906"/>
	
		<path id="glutenfree" fill="none" stroke="#000000" stroke-width="2" stroke-linecap="round" stroke-linejoin="round" stroke-miterlimit="10" d="
		M372.675,509.006c0,0-2.148-0.623-2.791-4.902c-0.644-4.279,0.188-7.785,0.188-7.785s5.561,3.354,6.473,7.317
		c0.912,3.962-0.844,11.819-0.844,11.819s3.306-8.396,6.685-10.441c3.378-2.045,10.782-4.223,9.299-0.656
		c-1.482,3.567-8.732,2.817-9.582-4.006c-0.633-8.02-4.199-7.598-4.574-3.728c-0.375,3.869,4.661,4.763,12.672,0.372
		c8.012-4.392,5.556,2.354,3.233,2.839c-2.323,0.482-5.969,0.856-5.914-5.744c-0.633-7.527-5.207-6.544-4.995-2.111
		c1.142,3.157,6.571,1.728,12.242-2.743c5.59-3.898,9.202-4.727,7.81-1.267c-1.392,3.459-7.538,2.205-8.267-4.116
		c-1.083-7.297-5.225-2.272-4.205,0.598c1.02,2.87,6.368,0.564,10.924-3.939c4.558-4.505-4.081-3.377-3.87-0.281
		c0.289,2.339,5.137,3.8,9.358,1.408c2.667-1.104,4.687-8.672-8.667-13.857c-13.353-5.186-41.949,2.734-39.76,28.934
		s29.916,33.9,45.218,22.295c15.302-11.605-1.461-22.133-10.932-28.789c-9.471-6.657-21.165-12.396-21.165-12.396"/>
	
		<path id="apple" fill="none" stroke="#000000" stroke-width="2" stroke-linecap="round" stroke-linejoin="round" stroke-miterlimit="10" d="
		M558.772,475.639c0,0,3.477-3.881,11.402,0c7.926,3.882,12.374,16.377,7.158,27.779c-4.848,10.595-12.091,18.114-21.31,18.275
		c-9.22,0.163-18.341-5.919-23.574-18.275c-5.701-13.465-0.04-31.378,14.678-28.79c14.717,2.589,8.734,12.05,2.426,6.146
		c-4.345-4.066,2.547-11.928,8.613-13.991"/>
	
		<path id="cutlery" fill="none" stroke="#000000" stroke-width="2" stroke-linecap="round" stroke-linejoin="round" stroke-miterlimit="10" d="
		M213.76,134.245c0,0,0.459,27.738,0.55,32.872c0.091,5.134-0.092,10.911,2.017,10.82c2.11-0.091,2.567-4.31,2.476-12.47
		s-1.284-20.449,0.825-23.75c2.109-3.301,5.227-4.952,3.485-17.33c-1.743-12.379-9.789-40.62-9.789-2.04
		c0,12.105-6.327,4.401-6.533,11.278c-0.207,6.897,3.507,44.083-1.651,44.22c-5.569,0.148-2.384-39.887-2.384-44.931
		c0-5.042-6.235-3.483-5.96-11.003c0.275-7.518,2.017-14.304,2.017-14.304s0.643,12.471,3.21,12.746
		c2.567,0.275,2.567-13.96,2.567-13.96s0.734,14.052,3.21,14.143c2.476,0.092,2.429-13.111,2.429-13.111"/>
	
		<path id="baguette" fill="none" stroke="#000000" stroke-width="2" stroke-linecap="round" stroke-linejoin="round" stroke-miterlimit="10" d="
		M346.82,174.27c0,0,6.417-14.689,14.44-18.094s13.858-0.365,13.858-0.365s-2.917,3.525-10.94,4.498
		c-8.023,0.974-1.57-12.477,11.801-17.582c13.372-5.106,14.821,0.442,14.821,0.442s-7.658,4.742-14.223,3.891
		c-6.565-0.852,2.857-11.363,13.797-16.711c10.941-5.349,13.312,0.786,13.312,0.786s-4.498,3.89-11.792,3.525
		s-2.436-9.141,13.61-14.489c16.046-5.349,16.78-4.109,16.78-4.109s-9.027,15.785-19.164,27.949
		c-23.705,28.446-49.791,29.984-49.791,29.984"/>
	
		<path id="cheese" fill="none" stroke="#000000" stroke-width="2" stroke-linecap="round" stroke-linejoin="round" stroke-miterlimit="10" d="
		M558.682,169.411c0,0,7.823-3.375,13.19-6.135c3.729-1.918,6.837-2.827,13.189-5.368c0,0-2.303-11.963-4.754-19.63
		c-2.455-7.668-7.362-17.789-7.362-17.789s-7.821-0.46-13.803-1.38c-5.981-0.92-11.042-2.147-11.042-2.147
		s-10.122,10.275-3.22,12.729c6.901,2.453,7.974-6.902,0.92-6.135c-7.055,0.767-12.269,13.956-16.256,21.776
		c-3.988,7.822-7.668,11.656-7.668,11.656s4.359,2.194,9.815,3.681c8.435,2.301,17.904-11.693,8.128-13.764
		c-8.325-1.763-12.576,12.997-2.301,16.986c10.275,3.986,16.104,6.441,17.023,4.447c0.919-1.995,6.425-16.263,8.588-21.93
		c3.222-8.435,9.19-6.269,9.969,0.306c1.38,11.656-27.669,18.602-20.398-1.227c4.141-11.29,13.19-7.208,14.724-9.662
		c1.533-2.455,3.681-8.819,3.681-8.819"/>
	
		<path id="chicken" fill="none" stroke="#000000" stroke-width="2" stroke-linecap="round" stroke-linejoin="round" stroke-miterlimit="10" d="
		M183.271,320.752c0,0-8.665,7.152-0.413,18.431c8.414,11.498,36.299,10.612,29.985-12.058
		c-5.593-20.081-27.601-12.654-36.453-27.037c-6.73-10.935,4.818-12.374,9.312-0.196c6.327,17.146-12.125,49.34,39.062,46.214
		c30.03-1.834,2.567-27.509,2.567-27.509s-1.339,8.91,2.017,16.505c3.356,7.593,14.717,10.942,14.717-1.834
		c0-11.416-10.314-24.956-19.943-28.196c-13.892-4.676-23.107,2.338-23.107,2.338"/>
	
		<path id="drink" fill="none" stroke="#000000" stroke-width="2" stroke-linecap="round" stroke-linejoin="round" stroke-miterlimit="10" d="
		M375.244,293.748c0,0,0.738,1.064,8.896,1.284c10.178,0.275,17.421-5.41-0.092-5.501c-9.812-0.052-10.82,1.375-12.195,3.667
		c-3.883,6.471-2.934,16.597,4.493,21.641c7.328,4.977,5.659,11.7,9.032,24.413c0.895,3.371,3.471,3.389,6.923,4.472
		c7.015,2.201,5.593,6.052-8.069,6.052c-13.662,0-17.457-3.455-7.794-5.96c3.713-0.963,5.716-1.064,6.67-4.563
		c3.026-11.095,0.966-19.625,7.542-24.596c12.012-9.079,6.326-19.624,6.326-19.624"/>
	
		<path id="wine" fill="none" stroke="#000000" stroke-width="2" stroke-linecap="round" stroke-linejoin="round" stroke-miterlimit="10" d="
		M554.154,287.119c0,0,5.34,0.259,5.34-1.181c0-3.36-0.377-10.603-0.29-12.4c0.083-1.698-8.832-2.338-8.776,0.443
		c0.083,4.137,0.161,15.001,0.127,16.902c-0.057,3.274-1.5,2.878-3.563,4.651c-2.868,2.466-3.229,3.388-3.229,21.406
		c0,27.457-2.429,35.676,11.812,35.676c14.242,0,10.377-17.002,10.377-36.414c0-9.301,0.662-10.704-2.54-10.728
		c-3.864-0.027-14.903,0.197-14.903,0.197s-0.11,11.169-0.11,14.81c0,3.642,0.221,14.616,0.221,14.616s1.905,0.714,6.982,0.812
		c5.078,0.097,6.431-0.222,6.431-0.222"/>
	
		<path id="pepper" fill="none" stroke="#000000" stroke-width="2" stroke-linecap="round" stroke-linejoin="round" stroke-miterlimit="10" d="
		M725.555,129.553c0,0,4.822-5.321,0.417-8.23c-5.504-3.635-10.096,5.655-9.726-3.824c0.332-8.479,5.07-7.563,14.13,0
		c6.671,5.572,3.637,26.748,2.879,34.663c-0.894,9.357-3.119,20.926-0.183,21.567c8.25,1.805,23.688-48.894,8.275-44.343
		c-9.636,2.845-9.227,4.655-20.757,4.604c-10.751-0.047-10.279,38.914,1.469,40.29c9.217,1.081,12.4-41.614-6.425-44.878
		c-15.878-2.753-10.647,40.841-3.488,39.831"/>
	
		<path id="sushi" fill="none" stroke="#000000" stroke-width="2" stroke-linecap="round" stroke-linejoin="round" stroke-miterlimit="10" d="
		M870.868,160.104c0,0,6.564,9.846,29.479-6.545c4.499-3.217,11.258-11.964,2.453-12.512c-20.176-1.254-17.547-6.038-2.861-2.944
		c13.459,2.836-11.459,7.18-22.007,6.166c-10.549-1.014-4.167-4.26,7.578-2.716c13.441,1.767,10.622,9.355-4.229,9.381
		c-14.849,0.028-19.134-0.303-12.658-2.598c6.594-2.334,21.109,1.031,16.161,5.405c-6.342,5.608-31.704,4.487-21.109-8.401
		c12.114-14.739,31.741-13.982,40.271-9.835c8.494,4.13,16.572,6.373,20.004,6.123c5.304-0.387,5.729-4.637,0.441-4.566
		c-5.288,0.07-7.123,5.287,3.314,4.724c10.435-0.564,8.63-9.611-3.438-8.407c-12.199,1.215-9.608,5.605-9.466,13.007
		c0.14,7.405,0,12.237,10.083,12.535c9.589,0.282,10.435-2.328,9.871-16.359"/>
	
		<path id="burger" fill="none" stroke="#000000" stroke-width="2" stroke-linecap="round" stroke-linejoin="round" stroke-miterlimit="10" d="
		M747.639,483.878c0,0,8.39-13.755-19.255-14.167c-27.918-0.417-26.866,14.808-22.557,17.192c4.309,2.384,21.612-2.38,31.268-1.329
		c13.478,1.467,15.221,9.077,15.221,9.077s-7.795-3.943-13.663-3.853c-5.868,0.092-4.952,2.386-4.952,2.386
		s-3.301-3.211-10.728-3.577c-11.192-0.552-14.305,5.595-14.305,5.595s2.019-3.851-1.833-3.76
		c-3.852,0.092-10.551,7.189,6.143,6.602c18.247-0.643,6.744-3.824,23.749-1.65c20.081,2.567,15.13,6.785,1.926,4.584
		c-13.204-2.2-23.749,0.367-31.313,2.432c-4.25,1.158-2.321,4.522,2.063,7.472c5.043,3.394,4.402-8.71,16.139-7.519
		c11.736,1.192,24.437-1.191,24.024,6.098c-0.373,6.592-30.397,6.878-36.999,5.502c-6.029-1.256-6.693-0.596-5.501,3.164
		c1.191,3.759,4.676,5.913,19.393,6.051c22.923,0.214,21.594-6.602,21.594-6.602"/>
	
		<path id="cup" fill="none" stroke="#000000" stroke-width="2" stroke-linecap="round" stroke-linejoin="round" stroke-miterlimit="10" d="
		M912.117,319.17c0,0,1.191,27.849-1.626,28.392c-4.094,0.787-6.031-11.908-9.356-22.391c-6.786-21.384-6.833-24.101-23.177-28.359
		c-2.776-0.722-3.133-5.309,2.051-4.148c18.533,4.149,17.85,8.765,25.386,31.303c6.296,18.827,10.613,30.228-4.006,30.312
		c-14.847,0.085-10.403-7.477-14.628-38.9c-0.724-5.389,1.515-7.586,14.627-7.694c13.018-0.106,16.728,7.925,0.216,8.451
		c-10.184,0.326-10.292-1.191-10.292-1.191"/>
	
		<path id="cupcake" fill="none" stroke="#000000" stroke-width="2" stroke-linecap="round" stroke-linejoin="round" stroke-miterlimit="10" d="
		M709.887,333.689c0,0,2.431,16.378,8.842,16.375c3.817-0.001,1.211-19.655-3.052-18.622c-2.519,0.612,3.357,18.929,8.7,18.929
		s4.806-20.072,1.451-20.225c-3.359-0.152,0.228,20.606,4.35,20.454c4.122-0.152,9.464-20.663,6.256-20.533
		c-3.814,0.155-3.965,20.304-0.455,20.304c3.511,0,12.973-22.745,2.745-24.729c-10.225-1.986-15.541-2.409-23.514,1.159
		c-5.95,2.661-10.021-0.784-7.516-6.42c2.737-6.155,19.571-2.767,28.339,0.156c7.396,2.466,9.757-6.917-0.47-7.984
		s-23.016,4.384-19.258-4.854c2.777-6.825,19.651,4.236,18.005-1.878c-1.096-4.071-4.168-2.805-6.889-4.697
		c-3.601-2.505-1.723-4.854-1.723-4.854"/>
	
		<path id="broccoli" fill="none" stroke="#000000" stroke-width="2" stroke-linecap="round" stroke-linejoin="round" stroke-miterlimit="10" d="
		M893.77,490.453c0,0-0.525-2.674,2.953-2.105c3.369,0.55-1.85,9.253-7.978,8.665c-8.556-0.82-2.682-12.241,1.903-13.236
		c3.101-0.672,3.455,1.695,0.619,2.785c-2.891,1.112-11.502-1.791-6.394-8.062c4.893-6.006,14.222-6.689,17.742-0.354
		c3.519,6.335-3.168,8.974-4.575,5.808c-1.408-3.168,8.039-7.954,10.296-1.784c1.32,3.608-3.669,5.838-3.669,5.838
		s4.646,4.91,0.334,9.396c-2.756,2.868-9.007,0.945-9.007,0.945s2.461,2.062,4.559,4.781c3.67,4.754-2.197,6.923-4.448,4.838
		c-2.252-2.084,0.195-8.257-7.145-7.09c-7.339,1.168-4.086,4.587-4.086,4.587s-2.302,1.809-1.417,3.752
		c2.641,5.812,8.98,1.363,7.979-1.194c-1.23-3.145-5.686,1.653,0.223,2.781c12.538,2.391,6.338,12.231,14.9,12.009
		c4.759-0.123,4.781-2.779,6.56-10.397c2.127-9.109,8.118-9.202,11.037-9.118c2.92,0.084,6.255-4.421,4.253-6.672
		c-2-2.253-4.503-2.502-4.503-2.502s3.92-6.673-0.5-9.008c-4.42-2.335-11.361,1.143-9.09,6.004c1.973,4.228,5.086,5.84,6.087,2.921
		c1.222-3.564-8.173-3.252-9.506,1.195c-1.315,4.378,3.224,5.616,3.224,5.616c-1.725,2.779-3.613,4.613-7.561,2.111"/>
	
		<path id="whale" fill="none" stroke="#000000" stroke-width="2" stroke-linecap="round" stroke-linejoin="round" stroke-miterlimit="10" d="
		M556.858,666.289c0,0-1.203,7.592-8.024,12.756c-6.821,5.166-12.961,3.412-10.622,2.047c2.338-1.364,6.301-3.587,8.882-7.38
		c1.844-2.708,1.702-6.141,5.248-8.604c5.969-4.145,11.791-2.775,9.746,1.707c-2.047,4.483-14.2,8.288-21.831,5.409
		c-14.79-5.579-27.685,2.242-33.355,2.534c-4.238,0.22-10.5,0.098-3.678-4.581c6.821-4.679,12.571,0.169,14.13,4.361
		c1.559,4.19,2.607,9.092,0.73,8.406c-3.8-1.391-10.085-8.771-4.043-15.982c3.237-3.865,12.983-8.194,23.415-9.819
		c14.318-2.231,36.676-10.979,44.3-12.688c17.061-3.827-13.884,10.133-13.884,10.133s47.81-22.15,19.972,1.856
		c-9.87,8.511-25.261,10.586-27.899,17.825c-3.801,10.429,1.46,15.302,1.948,11.5c0.694-5.416,3.847-12.622,4.489-13.995"/>
	
		<path id="clown" fill="none" stroke="#000000" stroke-width="2" stroke-linecap="round" stroke-linejoin="round" stroke-miterlimit="10" d="
		M194.085,854.674c0,0,1.012-5.673-1.129-7.102c-2.663-1.774-11.863-6.858-11.458,5.406c0.404,12.265,7.827,6.377,11.377,5.327
		c2.703-0.8,6.617,0.322,6.375-5.812c-0.242-6.132-2.646-13.978,6.778-12.989c10.005,1.047,7.542,6.779,7.747,12.749
		c0.343,10.045-1.937,10.81-5.81,11.458c-3.379,0.563-7.182-0.242-8.957-1.211c-1.775-0.969-1.533-4.359,5.648-2.26
		c7.181,2.099,18.324,5.384,24.288,5.729c8.351,0.484,24.369-3.952,24.207-10.489c-0.161-6.535-7.212-11.344-9.562-7.746
		c-2.582,3.954,2.035,6.221,2.986,3.874c1.291-3.188-5.254-3.388-5.447,1.531c-0.162,4.116,1.614,7.182-0.162,7.827
		c-1.669,0.607-3.469,0.082-4.437-5.486c-0.969-5.567,1.632-9.657,3.308-10.329c2.623-1.048-8.23-9.683-14.767-8.472
		c-6.537,1.21-5.326,6.294-3.066,8.392c2.26,2.098,9.28,4.601,10.49,7.343c1.21,2.744,0.161,4.842-0.888,5.566
		c-1.928,1.336-7.776,5.438-9.764,0.405c-2.582-6.536,0.565-8.393,0.565-8.393"/>
	
		<path id="turtle" fill="none" stroke="#000000" stroke-width="2" stroke-linecap="round" stroke-linejoin="round" stroke-miterlimit="10" d="
		M742.752,825.788c0,0-0.321-1.827-3.566-1.986c-3.413-0.164-2.095-3.245,5.129-1.569c10.684,2.478,8.376,9.947,5.341,8.585
		c-3.037-1.361-15.392-5.916-29.214-1.257c-11.579,3.904-18.271,14.031-20.889,13.927c-2.617-0.104-3.874,1.885-2.617,2.513
		c1.255,0.628,3.558,0.838,3.558,0.838s0,0.42,0.628,1.675c0.628,1.259,2.932,2.201,2.932,2.201s-1.884,0.313-4.71,2.407
		c-2.829,2.094-3.98,8.899,0.523,8.586c4.501-0.314,7.747-5.862,11.203-7.434c3.455-1.57,11.099,2.512,23.141-0.105
		c12.04-2.618,14.659-7.748,16.962-15.392c2.305-7.646,9.74-7.592,14.031-6.021c8.237,3.014,6.597,8.953,6.597,8.953
		c-2.355,0.366-3.823,1.676-9.371,0.628c-5.551-1.047-8.288-0.754-8.83,0.954c-1.101,3.456,6.787,4.875,4.657,15.489
		c-2.507,12.493-7.612,15.545-10.545,15.598c-2.931,0.052,0.054-3.637,1.555-12.891c1.299-8.013-0.863-9.623-0.863-9.623"/>
	
		<path id="crab" fill="none" stroke="#000000" stroke-width="2" stroke-linecap="round" stroke-linejoin="round" stroke-miterlimit="10" d="
		M512.618,1037.916c0,0,6.899-13.676,15.008-15.734c8.111-2.057,12.425,2.501,12.425,2.501s-10.186-4.603-16.945,6.536
		c-5.728,9.441,3.229,16.18,3.229,16.18s-7.06-14.766,8.313-17.791c15.371-3.027,16.742,17.791,16.742,17.791
		s-3.631-5.569-6.172-3.996c-2.541,1.575,1.453,4.723,1.453,4.723s-6.579-3.279-7.263-12.306
		c-0.403-5.326,2.824-14.849,11.781-13.879c6.451,0.697,0.565-9.118-1.856-7.504c-2.55,1.7,3.541,7.429,8.796,7.504
		c5.567,0.08,12.021-7.343,7.665-8.635c-3.483-1.031-4.483,9.358-0.887,8.796c10.328-1.613,15.266,13.999,10.257,23.884
		c-4.262,8.406-11.35,6.636-11.35,6.636s7.085-4.105,4.535-5.837c-4.021-2.729-10.029,4.352-10.029,4.352
		s-3.495-10.297,9.968-18.058c23.928-13.79,21.471,14.2,21.471,14.2s6.618-16.06-3.55-20.74c-5.436-2.501-8.151-1.775-8.151-1.775
		s4.851-5.624,14.444,1.615c8.876,6.696,8.231,14.12,8.231,14.12"/>
	
		<path id="shark" fill="none" stroke="#000000" stroke-width="2" stroke-linecap="round" stroke-linejoin="round" stroke-miterlimit="10" d="
		M864.153,1181.615l-2.339-10.527c0,0,7.544,13.799,11.296,17.429c8.315,8.048,13.072,11.739,25.781,13.92
		c16.919,2.898-3.149,7.262-3.149,7.262s14.164-1.05,22.393-3.631c8.231-2.584,10.772,0.362,8.352,2.782
		c-2.42,2.421-11.217,6.173-7.019,0.849c3.636-4.614,11.337-4.854,16.662-4.962c7.988-0.161,20.083-3.65,11.459-5.567
		c-9.441-2.099-12.024,2.34-7.021,2.34c5.003,0,8.15-0.002,12.104-1.614c3.953-1.615,8.998-2.823-2.905-7.424
		c-13.153-5.083-35.99-4.438-41.879-12.991c-4.605-6.686-7.304-7.182-7.304-7.182s2.14,10.007-1.652,12.267
		c-4.328,2.578-12.185,4.599-18.962,7.18c-9.694,3.694-20.093,11.861-18.639,8.956c1.452-2.905,1.997-5.409,4.114-6.535"/>
	<g id="ostrich">
		<path fill="none" stroke="#000000" stroke-width="2" stroke-linecap="round" stroke-linejoin="round" d="M396.57,686.096
			c0,0,1.4-7.628-15.233-8.975c-8.78-0.709,12.328-7.679,12.135-19.171c-0.113-6.766-4.62-13.761-15.421-13.262
			c-18.792,0.868-28.023,17.556-28.023,17.556s4.816-6.722,19.851,3.001c20.8,13.452,33.262-5.811,29.339-15.055
			c-3.921-9.25-7.987-13.315-8.908-18.012c-0.885-4.516,0.693-5.522,2.024-5.85c1.582-0.384,2.959,0.532,3.463,0.991
			c1.807,1.645,4.139,1.88,4.139,1.88s-1.882,0.444-4.132,1.694c-1.693,0.941-4.745,3.051-3.145,6.896
			c2.4,5.76,2.685,13.897,0.678,17.179c-3.995,6.534-12.046,5.909-21.233,18.603c-5.327,7.361-6.198,16.268,0.484,22.368"/>
	</g>
	
		<path id="elephant" fill="none" stroke="#000000" stroke-width="2" stroke-linecap="round" stroke-linejoin="round" stroke-miterlimit="10" d="
		M251.063,674.889c0,0-1.73-1.421-3.116,0.516c-1.405,1.96,0.757,4.206,3.116,4.251c9.863,0.187,9.204-16.817,3.094-29.448
		c-5.436-11.24-13.584-18.844-27.278-12.414c-15.554,7.305-12.094,23.132,1.854,20.174c23.085-4.897-0.165,17.005-0.165,17.005
		s21.626-4.625,4.623-9.741c-5.727-1.726-13.514,18.901-13.514,18.901s1.084-24.102-15.615-20.504
		c-28.065,6.047-6.974,19.354-6.974,19.354s0.928-13.618-6.5-12.999c-9.228,0.768-11.709,14.148-11.709,14.148
		s-11.332-18.629,5.953-37.795c8.491-9.419,28.458-16.149,44.233-9.419c15.688,6.694-3.562,19.727,13.937,22.826
		c11.403,2.02,23.29-9.371,23.29-9.371"/>
	
		<path id="kangaroo" fill="none" stroke="#000000" stroke-width="2" stroke-linecap="round" stroke-linejoin="round" stroke-miterlimit="10" d="
		M710.588,682.336c0,0,5.231-6.579,2.708-11.761c-5.246-10.777-1.186,0.572,17.539-15.271c9.341-7.905,8.351-22.739-7.846-18.27
		c-11.996,3.313-16.348,15.444-22.547,22.959c-7.037,8.527-20.053-0.35-20.053-0.35s7.458,7.605,14.172,7.423
		c12.4-0.338,18.499-18.968,27.501-14.848c9.954,4.555,20.084,3.298,27.423-4.8c7.339-8.1,8.556-4.059,9.862-3.594
		c1.308,0.465,3.584,0.465,1.603-2.994c-1.982-3.459-5.862-3.754-7.127-8.941c-1.266-5.189,2.994-4.599,2.445,0.506
		c-0.549,5.104-2.235,6.538-5.906,8.098c-3.668,1.561-11.514,2.396-10.376,7.76c1.604,7.552,1.604,18.519-3.753,14.216"/>
	
		<path id="lion" fill="none" stroke="#000000" stroke-width="2" stroke-linecap="round" stroke-linejoin="round" stroke-miterlimit="10" d="
		M897.641,689.998l-4.822-7.313c0,0,8.119-13.662,2.492-19.688c-5.625-6.029-12.619-2.172-15.669,4.098
		c-3.055,6.267-4.825,24.11-4.825,24.11c3.216-8.277,10.771-21.539,27.728-17.118c13.111,3.417,15.41-3.127,19.693,3.301
		c7.149,10.721,11.091,14.585,11.091,14.585s-5.144-17.838,0.242-32.063c3.952-10.44,2.341-25.18-14.828-14.102
		c-15.042,9.709-6.952,22.068,1.93,22.895c11.228,1.048,12.564-8.948,15.329-7.634c3.266,1.554,4.688,0.022,6.48-2.841
		c1.528-2.438-2.52-3.406-4.587-9.091c-1.395-3.832-6.976-7.847-15.054,0.408c-12.272,12.54-31.549,1.718-42.828,11.74
		c-4.8,4.26-13.474,13.204-19.42,6.613"/>
	
		<path id="squirrel" fill="none" stroke="#000000" stroke-width="2" stroke-linecap="round" stroke-linejoin="round" stroke-miterlimit="10" d="
		M394.974,874.695c0,0,5.521,1.946,4.079-1.955c-0.791-2.139-5.893-2.767-11.262-1.947c-9.147,1.396-14.258-6.071-11.628-12.56
		c2.629-6.486,13.33-8.216,16.421,1.146c3.089,9.359-11.379,20.242-21.187,12.797c-7.82-5.936-8.199-17.28-5.821-22.8
		c5.77-13.406-1.381-15.107-4.344-12.023c-1.936,2.016-2.606,3.722-2.606,3.722s-1.134-24.273,19.872-20.593
		c15.764,2.762,7.01,22.182,7.01,22.182s10.427-4.239,13.942,1.735c3.515,5.976-0.533,10.392,6.473,11.216
		c7.005,0.823,4.132,7.258,4.132,7.258s-0.802-3.524-9.174-3.209c-7.758,0.293-16.001-16.931-3.061-21.445
		c12.94-4.516,3.24-11.801,3.24-11.801s-4.455,7.958,3.217,11.97c7.672,4.009,6.93,9.575,6.93,9.575s-3.869,3.035-7.074,1.728"/>
	
		<path id="deer" fill="none" stroke="#000000" stroke-width="2" stroke-linecap="round" stroke-linejoin="round" stroke-miterlimit="10" d="
		M542.842,875.775c0,0-7.772-10.534-7.389-11.616c2.171-6.126,37.688-2.55,32.248-22.444c-3.322-12.145-38.047-3.228-41.905,6.134
		c-2.689,6.529,3.951,7.137,0.44,12.449c-3.509,5.313-3.697,15.383-3.697,15.383s11.119-27.184,29.064-22.266
		c16.508,4.526,15.339,21.981,15.339,21.981s-2.08-16.217,7.684-26.472c13-13.654-3.89-35.578,18.312-14.896
		c4.205,3.916-18.5,3.89-28.864-10.944c-6.426-9.199-4.144-20.077-4.144-20.077c-1.338,9.39,2.742,19.92,8.308,18.973
		c10.834-1.848,0.031-11.103,0.031-11.103c-1.042,5.029,4.129,14.715,10.343,11.767c5.597-2.657,0.839-8.54,0.839-8.54"/>
	
		<path id="cheetah" fill="none" stroke="#000000" stroke-width="2" stroke-linecap="round" stroke-linejoin="round" stroke-miterlimit="10" d="
		M897.865,844.525c0,0-6.139,7.341,1.892,7.845c8.833,0.555,20.168,6.03,20.168,6.03s-0.056-2.589-3.561-4.807
		c-3.551-2.246-11.506-5.359-10.143-8.689c1.956-4.781,7.577-6.833,4.21-12.795c-2.664-4.721-12.13-7.434-24.176,4.757
		c-12.375,12.527-38.85,2.558-41.248,6.153c-2.884,4.326,11.418,7.312,26.538,3.847c14.121-3.239,18.759-5.572,33.341-9.467
		c14.069-3.759,27.083-5.363,29.899-7.297c3.748-2.574,5.741-0.721,9.876,4.183c2.046,2.427,0.752,5.194-4.004,4.626
		c-8.421-1.005-5.757,1.451-13.153,7.316c-2.684,2.128-6.187,0.574-13.929,6.269c-13.91,10.233-19.991,19.785-19.991,19.785
		s4.68-9.737,11.923-17.797c6.646-7.395,7.557-11.331,10.323-13.436c3.738-2.849,5.397-2.314,5.397-2.314"/>
	
		<path id="fox" fill="none" stroke="#000000" stroke-width="2" stroke-linecap="round" stroke-linejoin="round" stroke-miterlimit="10" d="
		M252.288,1046.161c3.917-2.386,2.554-4.77-5.282-6.983c-5.648-1.597-7.501-0.17-14.4-6.474c-6.898-6.301-0.084-8.601,5.791-9.963
		c5.876-1.363,8.431-3.32,9.963-5.706c1.533-2.385,4.553-4.938,4.553-4.938s-1.335,2.976,2.056,7.376
		c3.44,4.46,8.863,6.163,8.863,6.163c-2.612,4.003-11.429-2.641-21.12,9.907c-7.3,9.454-11.752,18.622-11.752,18.622
		s3.292-16.578-6.87-14.648c-12.309,2.338-26.569,14.648-26.569,14.648s9.793-8.518,8.941-15.927
		c-0.852-7.407-8.751-8.454-22.803-6.026c-14.051,2.428-18.248,14.251-18.248,14.251s15.811,0.971,28.958-6.436
		c13.064-7.358,17.67-14.774,23.93-8.942c8.186,7.631-3.705,16.352-3.705,16.352l5.663,5.705"/>
	
		<path id="dromedary" fill="none" stroke="#000000" stroke-width="2" stroke-linecap="round" stroke-linejoin="round" stroke-miterlimit="10" d="
		M372.269,1055.497c0,0-2.75-45.149-7.303-39.837c-6.015,7.016,3.072,44.112,3.072,44.112s-3.337-34.404,12.54-32.813
		c18.264,1.832,14.463,32.464,14.463,32.464s3.394-27.666,8.715-32.203c5.323-4.537,12.827,2.444,17.712-6.28
		c4.886-8.726,10.732-15.356,7.329-18.149c-3.402-2.792-4.71-0.174-4.797,1.92c-0.087,2.096,2.792,4.886,7.852,2.706
		c5.06-2.182,6.195,0.871,6.63-0.786c0.438-1.658-0.521-3.926-3.227-4.537c-2.706-0.609-4.668-1.396-6.675-2.706
		c-2.007-1.308-4.929-1.134-6.5,1.485c-1.571,2.615-2.006,14.975-7.417,14.832c-9.947-0.262-18.177-18.305-27.484-19.108
		c-12.127-1.045-15.574,9.773-23.207,15.226c-3.663,2.615-4.429,10.213-4.844,15.094c-0.325,3.825-2.618,6.502-2.618,6.502"/>
	
		<path id="rooster" fill="none" stroke="#000000" stroke-width="2" stroke-linecap="round" stroke-linejoin="round" stroke-miterlimit="10" d="
		M714.995,1027.218c0,0-2.816,9.775-5.551,4.225s2.485-12.345,0-10.854s-6.545,7.209-4.475,1.077
		c2.072-6.132,4.308-9.363,1.907-7.706c-2.404,1.656-4.64,1.904-0.912-2.899c3.728-4.806,9.859-3.73,12.18,1.739
		c2.321,5.47,8.202,6.794,12.926,4.227c4.724-2.569-6.96-3.232-9.445,2.237c-2.486,5.468-1.989,7.954,0.746,9.941
		c2.734,1.989,5.136,0.25,5.136,0.25s0.996,3.397,1.824,4.556c0.829,1.161,2.652,0,3.396-7.29
		c0.746-7.292,2.072-12.738,4.807-18.715c2.733-5.978,4.888-8.297,7.706-10.369c2.816-2.07,4.386-1.271,6.213,0
		c3.633,2.527,5.358,6.104,5.358,6.104s-4.929-1.014-7.237-1.105c-2.111-0.083-4.286-2.449-4.805-6.186
		c-0.776-5.58,1.306-5.203,2.854-3.995c0.837,0.652,2.876-3.28,5.057-2.318c2.059,0.908,0.389,3.788,1.887,3.971
		c3.3,0.4,2.687,2.674,0.863,3.668c-1.138,0.621-4.474,1.52-3.812,5.993c0.663,4.476,3.375,9.094,2.575,16.229
		c-1.04,9.249-10.253,16.555-15.445,19.703c-4.212,2.553-3.922,4.309-2.955,8.562c0.58,2.554-2.702,4.783-3.508,3.812
		c-1.602-1.934,0.925-3.214,4.833-1.49c2.123,0.935,2.704,1.751,6.213,1.722"/>
	
		<path id="horse" fill="none" stroke="#000000" stroke-width="2" stroke-linecap="round" stroke-linejoin="round" stroke-miterlimit="10" d="
		M902.872,1048.038c0,0-14.442-20.663,7.406-19.945c17.869,0.589,29.389,22.918,29.389,22.918s-7.009-10.007-8.348-24.681
		c-1.108-12.182-3.645-24.686,10.407-15.421c2.432,1.605,6.438-1.868,3.383-4.61c-6.058-5.435-3.175-6.937-9.366-9.991
		c-2.049-1.011-12.149,0.862-25.708,15.363c-8.007,8.563-15.674,15.938-21.237,21.863c-10.223,10.891-18.487,16.693-18.487,16.693
		s11.756-15.631,12.932-24.915c1.175-9.288,3.92-14.869-0.602-16.909c-3.013-1.358-7.081,1.216-15.739,0.374
		c-9.639-0.94-12.774-6.273-12.774-6.273s-0.392,14.657,14.537,12.895c14.929-1.763,21.343-8.82,46.606,1.211
		c27.429,10.895,31.136,20.967,23.848,23.906"/>
	
		<path id="rhino" fill="none" stroke="#000000" stroke-width="2" stroke-linecap="round" stroke-linejoin="round" stroke-miterlimit="10" d="
		M228.677,1223.63c0,0,5.172-12.686-13.447-13.169c-46.684-1.213-24.425,13.513-24.425,13.513s-0.433-13.772-7.102-16.457
		c-6.67-2.685-5.89,16.457-5.89,16.457c-3.032-9.356-11.677-43.841,20.959-41.229c22.728,1.819,18.804,42.439,18.804,42.439
		s7.317-11.354,12.471-21.99c6.148-12.692,19.816-21.642,15.843-23.223c-7.189-2.857-8.055,15.507,6.929,22.262
		c5.575,2.512,15.504-9.79,15.504-9.79s-1.733,7.711-7.795,13.6c-6.063,5.89-1.906,10.827-12.993,8.921
		c-14.741-2.532-10.219-13.077-10.219-13.077"/>
	
		<path id="bull" fill="none" stroke="#000000" stroke-width="2" stroke-linecap="round" stroke-linejoin="round" stroke-miterlimit="10" d="
		M439.925,1150.053c0,0,0.267,6.134-4.876,6.581c-14.017,1.219-26.937,17.063-11.578,19.259c10.322,1.475,8.836-0.548,12.676,1.096
		c3.838,1.646,7.377-3.058,5.485-4.752c-9.386-8.411-16.648-18.874-30.106-6.948c-19.259,17.065-46.22,4.988-54.472,13.255
		c-8.252,8.266-7.435,24.024,4.311,26.491c20.516,4.308,19.285,14.874,19.285,14.874s-9.95-5.643-9.794-21.366
		c0.146-14.75-10.328-26.153-18.921-7.322c-8.592,18.83-8.031,30.543-8.031,30.543s13.251-23.799,37.846-24.135
		c35.771-0.488,26.811,24.741,26.811,24.741s19.849-53.536-1.539-45.382c-18.74,7.146-0.431,17.584,16.31,21.541
		c8.462,2.001-1.692,11.847-1.692,11.847"/>
	
		<path id="snake" fill="none" stroke="#000000" stroke-width="2" stroke-linecap="round" stroke-linejoin="round" stroke-miterlimit="10" d="
		M589.629,1229.531c0,0,15.751-5.205-5.069-6.409c-20.139-1.163-4.42-3.413,8.639-5.086c13.063-1.677,10.272-6.598,0.67-11.164
		c-9.598-4.568-33.61-6.812-48.274-4.021c-14.666,2.791-19.092,17.975,6.209,17.975c23.426,0,31.344-10.34,27.732-22.151
		c-3.639-11.897-14.205-7.172-22.615-29.647c-5.43-14.508,0.688-15.196,4.502-15.367c3.814-0.168,4.599,2.017,7.625,1.785
		c3.027-0.231,3.644-2.071,0.106-5.159c-3.538-3.087-11.386-11.217-21.599,1.508c-10.966,13.66-12.119,29.593,8.359,37.663
		c19.536,7.697,19.805,14.669,12.569,20.66c-8.884,7.357-29.036,2.391-22.891-1.127c3.252-1.858,9.461-2.432,18.694-2.009"/>
	
		<path id="gorilla" fill="none" stroke="#000000" stroke-width="2" stroke-linecap="round" stroke-linejoin="round" stroke-miterlimit="10" d="
		M725.253,1178.705c0,0,7.363-3.525,11.817-6.251c10.059-6.151,15.975-6.044,20.945,9.676c0.826,2.613,10.38,3.478,13.489-1.363
		c1.798-2.798-4.641-8.894-1.759-9.376c2.873-0.479,0.878-5.418-3.222-8.936c-5.244-4.496-7.811-8.058-11.867-6.152
		c-5.734,2.697-9.968,5.019-20.285,17.813c-5.256,6.52,2.407,24.123,13.694,36.533c13.256,14.574,20.744,17.57,20.744,17.57
		s0.089-8.085-4.005-19.825c-8.063-23.123-32.114-13.606-45.45-3.752c-7.277,5.378-15.057,14.999-18.711,22.406
		c0,0-9.404-33.703,5.372-42.874c11.327-7.031,19.043,0.977,15.038,16.505c-3.878,15.043,1.367,24.316,1.367,24.316"/>
	
		<path id="the_force_is_with_you_1_" fill="none" stroke="#000000" stroke-width="2" stroke-linecap="round" stroke-linejoin="round" stroke-miterlimit="10" d="
		M1792.913,1533.88c0,0-25.764,1.591-34.304-1.954c-7.167-2.978-7.165-7.021-3.112-17.659c4.052-10.638,6.729-14.69,7.164-21.565
		c0.358-5.687,6.002-16.986,15.922-16.863c5.791,0.072,7.537,20.048,3.617,20.048c-4.774,0-3.11-20.473,3.259-20.265
		c10.999,0.363,16.694,10.962,17.441,16.79c1.014,7.89-4.38,17.64-12.195,17.368c-7.766-0.268-6.749-6.26-12.756-8.648
		c-6.868-2.729-12.339,0.217-11.181,5.212c1.157,4.992,10.033,4.715,13.515,0.813c2.716-3.039,4.862-7.881,11.399-7.218
		c13.206,1.339,4.271,26.055-0.869,26.417c-5.138,0.359-22.437,0.432-19.756-1.811c7.525-6.298,19.62-13.538,10.999-13.607
		c-9.046-0.073,4.633,9.697,13.462,18.6c3.262,3.289,8.09,3.374,12.954,2.17c6.152-1.518,5.501-6.801,1.447-14.617
		c-4.053-7.816-5.716-10.712-5.716-10.712c-2.751-4.27-6.08-9.188-11.653-9.77c-5.572-0.578-7.165,2.531-10.061,2.314
		c-2.895-0.217-5.499-2.531-9.552-2.459c-4.054,0.071-9.744,4.141-10.079,8.305c-0.595,7.399,6.025,16.518,6.025,16.518"/>
	
		<path id="phone_1_" fill="none" stroke="#000000" stroke-width="2" stroke-linecap="round" stroke-linejoin="round" stroke-miterlimit="10" d="
		M1601.335,1524.752c0,0,15.166-0.252,15.166,4.748c0,4-7.212,4-7.212,0s11.772-3.31,14.01-4.91
		c3.33-2.379,2.913-29.26,2.913-39.252c0-9.984-4.995-9.38-14.23-9.38c-9.236,0-14.346-1.172-14.346,4.377
		s-1.109,40.46-1.109,49.614c0,7.976,22.75,6.424,29.068,6.424c6.316,0,5.149-39.75,5.149-52.838
		c0-13.086-4.188-14.378-16.739-14.378s-15.538-1.66-18.867,4.219c-3.329,5.878-1.791,29.939-2.495,48.237
		c-0.291,7.549-0.076,10.897,1.74,12.672c2.005,1.952,3.602,2.34,3.602,2.34"/>
	
		<path id="hi_1_" fill="none" stroke="#000000" stroke-width="2" stroke-linecap="round" stroke-linejoin="round" stroke-miterlimit="10" d="
		M1410.707,1508.425c0,0,14.607,1.097,19.248-15.527c3.454-12.389-6.338-11.235-10.373,0.29
		c-4.032,11.521-5.186,30.391-5.186,30.391s1.952-12.371,6.771-14.836c6.195-3.17,1.439,7.778,5.328,12.531
		c4.652,5.687,9.795-12.531,9.795-12.531s-4.594,13.488,4.034,14.26c9.651,0.865,17.965-8.837,14.981-22.615
		c-3.746-17.284-20.004-10.095-16.306-4.974c4.077,5.644,12.45-7.24,1.468-14.76c-22.631-15.494-54.296,18.054-35.866,44.942
		c13.677,19.953,43.933,4.609,43.933,4.609s1.729,2.879,7.346,4.992c6.412,2.412,9.508,1.777,9.508,1.777s-2.881-2.065-6.627-6.387
		c-3.743-4.322-3.889-7.152-3.889-7.152"/>
	
		<path id="plant_1_" fill="none" stroke="#000000" stroke-width="2" stroke-linecap="round" stroke-linejoin="round" stroke-miterlimit="10" d="
		M1278.667,1524.023c0,0-2.467,16.833-16.574,16.833c-15.983,0-24.527-22.274-19.709-22.274c3.188,0,21.476-0.625,33.717-0.367
		c9.295,0.193,10.716-1.232,10.716-4.609c0-2.469-1.515-3.242-10.83-3.529c-14.408-0.438-38.331,2.739-38.331,2.739
		s2.318-2.239,10.059-4.649c7.743-2.408,14.377-2.752,14.377-2.752s-3.881-12.969,5.409-18.356
		c9.291-5.387,13.421-2.979,13.421-2.979s-0.689,6.967-7.226,10.192c-6.539,3.228-12.366,2.884-12.366-5.373
		c0-8.26-12.926-6.022-12.926-6.022s-0.559,3.097,5.139,6.108c5.701,3.011,7.787,1.291,7.787-5.936
		c0-7.226-1.743-13.766,2.989-13.766c4.533,0,3.3,5.962-0.021,4.302"/>
	
		<path id="money_1_" fill="none" stroke="#000000" stroke-width="2" stroke-linecap="round" stroke-linejoin="round" stroke-miterlimit="10" d="
		M1084.789,1491.762c0,0-8.982,1.187-12.106,11.233c-2.368,7.62-0.914,20.102,13.25,25.393c0,0-8.003-0.806-15.737-1.501
		c-10.391-0.938-16.192-5.614-16.192-5.614s0.038-5.142,0.921-12.464c0.884-7.318,3.849-23.089,3.849-23.089
		s5.061,2.466,13.477,3.06c8.418,0.591,7.808-1.843,19.423-0.043c0,0-3.796,29.529-4.524,31.924
		c-0.75,2.472-4.848,0.692-3.718-1.701c0.913-1.929,1.611-0.279,7.935,0.799c6.261,1.07,9.931-1.38,9.591-5.427
		c-0.604-7.184-11.116-3.93-16.033-7.737c-4.395-3.407-0.228-11.216,7.631-9.324c7.177,1.726,7.821,1.728,7.778,0.207
		c-0.046-1.675-2.515-3.231-3.481-1.779c-0.967,1.45-3.805,33.075-3.805,33.075c11.267,2.586,12.018-0.153,21.012,0.931
		c8.994,1.087,10.136,2.961,10.136,2.961s1.914-12.288,2.924-18.957c1.159-7.652,1.655-18.658,1.655-18.658
		s-3.471-4.087-12.28-3.743c-7.647,0.3-17.324-1.425-17.324-1.425c11.838,4.771,13.979,9.487,13.396,20.237
		c-0.773,14.317-14.237,16.425-14.237,16.425"/>
	
		<path id="home_1_" fill="none" stroke="#000000" stroke-width="2" stroke-linecap="round" stroke-linejoin="round" stroke-miterlimit="10" d="
		M920.595,1883.541c0,0,3.861-23.57-7.326-23.857c-11.188-0.287-7.747,20.079-7.747,20.079s11.796-0.395,19.83-0.395
		c8.031,0,10.291-0.467,10.291-0.467s0.144-7.671,0.144-12.548c0-4.878-0.718-13.841-0.718-13.841s-4.691-6.003-10.47-11.439
		c-5.486-5.164-11.33-11.223-11.33-11.223s-7.064,7.028-12.659,12.19c-5.829,5.382-11.187,10.65-11.187,10.65
		s-0.25,7.566,0.038,13.877c0.285,6.312,0,13.481,0,13.481"/>
	
		<path id="earth_1_" fill="none" stroke="#000000" stroke-width="2" stroke-linecap="round" stroke-linejoin="round" stroke-miterlimit="10" d="
		M768.459,1859.039c0,0,0.134-7.514-6.875-5.971c-3.713,0.816-9.165,0.969-8.854-1.407c0.302-2.313,9.558,0.804,3.483,7.281
		c-3.719,3.962-7.306,1.974-10.929-1.346c-4.423-4.057-1.721-5.581,1.208-3.02c2.929,2.564,4.482,4.535,3.02,9.659
		c-1.466,5.126-3.084,5.12-2.718,8.048c0.366,2.928,1.26,3.567,3.488,0.502c5.534-7.61-4.808-3.472-7.004,2.018
		c-2.195,5.491-7.776,5.913-9.06-6.241c-1.307-12.373-9.239-5.736-10.161-12.777c-1.108-8.451,11.073-12.77,16.197-13.38
		c5.125-0.611,8.757-0.303,8.637,2.261c-0.123,2.564-6.833,3.659-12.934,1.831c-6.101-1.831-10.505-2.089-8.053-4.149
		c3.049-2.562,4.881-5.002,2.318-5.369c-2.563-0.365-2.684-2.927,0-3.293s6.466,3.293,8.542,0c2.073-3.296,3.417-5.857,5.124-4.88
		c1.708,0.976-4.638,8.66-7.566,2.926s6.591-10.491,16.717-5.245c10.126,5.245,22.696,18.18,19.279,36.238
		c-3.07,16.227-16.473,25.865-33.553,24.768c-19.667-1.265-30.73-18.627-28.918-34.162c2.562-21.963,21.723-28.096,21.723-28.096"/>
	
		<path id="file_1_" fill="none" stroke="#000000" stroke-width="2" stroke-linecap="round" stroke-linejoin="round" stroke-miterlimit="10" d="
		M567.486,1833.15c0,0,0.201,6.773,0.201,9.455c0,2.684-0.302,4.325-0.302,4.325s3.591-0.342,7.882-0.233
		c5.232,0.136,14.084,1.743,4.024-8.852c-7.024-7.399-7.787-9.256-11.805-9.256c-7.052,0-6.24,0.109-25.263,0.105
		c0,0,0.875,25.366,0.875,33.238c0,7.87-0.327,25.688-0.327,25.688s13.227-0.121,21.536-0.121c8.309,0,19.679,0,19.679,0
		s-0.219-20.109-0.219-26.23s-0.451-9.504-0.451-9.504"/>
	
		<path id="puzzle_1_" fill="none" stroke="#000000" stroke-width="2" stroke-linecap="round" stroke-linejoin="round" stroke-miterlimit="10" d="
		M379.757,1855.082c0,0-2.366-8.265,2.868-7.188c4.454,0.915,6.957,0.263,6.957-4.942c0-5.208-3.602-5.919-6.713-4.699
		c-3.685,1.445-4.169,0.122-4.169-5.896c0-6.611,3.255-5.046,8.543-5.046c1.274,0,4.23-0.652,2.883-2.774
		c-1.316-2.072-2.887-7.945,4.765-7.945c9.016,0,5.297,6.451,4.47,8.34c-0.972,2.215,2.269,2.062,3.991,2.055
		c4.455-0.021,7.713-0.936,7.713,4.617c0,5.552,0.056,7.083-4.031,6.102c-4.659-1.117-6.225,1.832-6.164,5.676
		c0.062,3.844,2.257,5.43,6.469,4.088c4.625-1.474,5.064,10.618,1.524,10.618c-6.711,0-11.048,1.494-9.03,4.696
		c1.77,2.808,2.441,7.688-4.21,7.688c-7.566,0-5.674-4.942-4.637-7.444c1.788-4.311-2.745-4.394-7.017-4.394
		c-4.271,0-3.966,1.403-3.601,5.919c0.22,2.691,1.832,7.262-2.563,4.943c-2.276-1.201-6.956-0.853-6.956,5.368
		c0,6.103,5.293,4.551,8.664,3.539c2.442-0.73,0.794,3.784,0.794,7.263c0,5.553,1.708,5.186,8.359,5.186
		c7.077,0-4.15-9.274,6.956-9.274c12.326,0-0.731,9.274,7.688,9.519c7.197,0.208,8.054,0.855,8.054-6.102
		c0-9.764,0.123-6.407,3.662-5.125s5.858-1.406,5.858-5.802c0-6.101-2.929-5.914-5.98-4.815c-4.032,1.451-4.309-0.125-4.149-7.685"
		/>
	
		<path id="play_1_" fill="none" stroke="#000000" stroke-width="2" stroke-linecap="round" stroke-linejoin="round" stroke-miterlimit="10" d="
		M229.852,1855.089c0,0-1.711,0.603-10.564-4.025c-7.062-3.691-15.292-8.552-15.292-8.552s0.301,5.23,0.502,13.18
		c0.189,7.442-1.308,13.581-1.308,13.581s5.571-3.706,16.297-7.346c11.571-3.921,22.897-2.087,20.727-15.692
		c-1.51-9.458-8.25-17.71-25.152-17.908c-17.103-0.201-26.762,14.587-26.459,29.075c0.29,13.882,8.191,28.551,28.07,27.264
		c25.386-1.643,23.944-25.353,23.944-25.353"/>
	
		<path id="user_1_" fill="none" stroke="#000000" stroke-width="2" stroke-linecap="round" stroke-linejoin="round" stroke-miterlimit="10" d="
		M883.785,1703.353c0,0-2.307-22.156,25.234-27.1c24.71-4.437,17.318-29.811,1.92-29.811c-17.123,0-25.5,25.252,3.857,30.855
		c17.146,3.275,23.243,25.131,23.243,25.131"/>
	
		<path id="love_1_" fill="none" stroke="#000000" stroke-width="2" stroke-linecap="round" stroke-linejoin="round" stroke-miterlimit="10" d="
		M734.998,1701.499c0,0-22.422-15.152-22.854-31.288c-0.492-18.439,24.673-24.644,28.494-2.038c1.041,6.163-7.201,4.947-5.119-1.648
		c5.115-16.202,28.549-17.065,27.075,4.976c-1.458,21.779-26.521,35.176-26.521,35.176"/>
	
		<path id="coffee_1_" fill="none" stroke="#000000" stroke-width="2" stroke-linecap="round" stroke-linejoin="round" stroke-miterlimit="10" d="
		M544.78,1664.173c0,0-0.273,28.226,0.346,34.614c0.854,8.821,6.02,10.529,18.256,10.529c12.235,0,15.972-4.838,15.972-11.383
		c0-3.186,0.046-12.114,0.046-19.464c0-6.189,10.523-6.751,9.922,2.964c-0.609,9.879-6.886,6.799-7.148,11.243
		c-0.276,4.698,12.091,1.827,12.466-10.46c0.408-13.335-7.322-14.905-12.146-14.441c-2.723,0.263-3.04-2.29-2.992-4.429
		c0.096-4.351-3.693-7.101-17.351-7.101c-13.659,0-14.696,2.115-14.696,4.498c0,2.847,5.447,4.758,14.546,5.036
		c15.901,0.484,20.193-9.552,4.457-13.316c-8.912-2.134-15.289,0.479-16.885-3.894c-1.657-4.533,7.78-5.309,19.256-3.222
		c8.648,1.572,10.125-10.813-5.692-8.157c-26.556,4.459-24.178-8.106-11.658-9.719"/>
	
		<path id="contact_1_" fill="none" stroke="#000000" stroke-width="2" stroke-linecap="round" stroke-linejoin="round" stroke-miterlimit="10" d="
		M397.694,1663.05c0,0-1.545-2.512-7.976-1.255c-9.701,1.894-13.565,19.767-0.209,22.141c15.133,2.692,17.362-19.885,13.95-20.478
		c-2.938-0.513-6.908,20.171,3.858,21.368c12.021,1.336,20.924-37.395-12.466-38.286c-42.288-1.126-35.912,70.045,14.692,48.377"/>
	
		<path id="rocket_1_" fill="none" stroke="#000000" stroke-width="2" stroke-linecap="round" stroke-linejoin="round" stroke-miterlimit="10" d="
		M213.61,1692.79c0,0,10.966-3.197,20.118-18.616c9.151-15.42,10.721-35.989,10.721-35.989s-23.073,3.593-36.147,24.461
		c-13.072,20.867-12.534,28.542-7.517,32.369c4.602,3.511,10.625,2.129,2.694-3.947c-7.199-5.517-21.875-3.816-21.875-3.816
		s3.106-9.994,10.491-16.024c6.806-5.559,17.162-3.404,24.871,2.527c7.709,5.93,13.218,14.982,10.205,22.438
		c-3.083,7.628-12.338,13.507-12.338,13.507s-1.256-11.063-5.859-10.185c-4.992,0.959-6.021,5.087-7.118,7.801
		c-1.784,4.415-4.701,4.002-4.701,4.002s-0.803-3.28-3.464-3.29c-2.661-0.011-8.427,6.423-8.427,6.423s6.156-9.874,3.305-10.792
		c-2.852-0.921-5.363,0.676-5.363,0.676s1.693-4.06,3.78-6.776c2.088-2.718,4.24-3.734,4.24-3.734"/>
	
		<path id="pizza_1_" fill="none" stroke="#000000" stroke-width="2" stroke-linecap="round" stroke-linejoin="round" stroke-miterlimit="10" d="
		M901.08,1492.327c0,0-3.951,3.474-5.101,7.467c-0.733,2.544-1.497,7.707,4.708,6.425c6.203-1.285-1.429-14.557-11.271,2.347
		c-9.843,16.905,0.672,20.148,7.274,15.336c6.847-4.993,1.812-12.164-5.706-8.987c-2.777,1.173-6.72,4.453-9.701,9.807
		c-3.77,6.775-9.016,16.865-5.347,17.438c3.422,0.536,8.986-2.904,13.05-5.241c4.28-2.461,5.564,2.459,6.847,1.178
		c1.286-1.286-0.213-4.496,2.354-5.564c2.567-1.069,3.473,1.724,3.208,4.708c-0.331,3.762,4.389,4.814,3.853-3.531
		c-0.534-8.328,2.139-2.459,4.92-5.028c2.782-2.568,3.564-6.348,9.342-9.449c6.643-3.568,11.311-14.274,5.026-16.159
		c-4.819-1.444-8.708-0.45-11.76,2.782c-4.272,4.521-0.307,10.681,7.092,9.158c6.104-1.258,25.795-5.786,25.496-19.812
		c-0.12-5.626-7.661-5.863-9.577,0.479c-2.042,6.762,4.922,7.856,6.704,1.436c1.976-7.116-2.634-11.369-12.449-13.523
		c-8.365-1.836-22.94-6.336-26.294-0.486c-2.712,4.733,0,7.273,1.927,7.488c1.925,0.213,4.493-0.854,4.493-0.854
		s0.215,1.922,4.28,3.636c4.066,1.711,7.205-1.283,7.205-1.283s0.213,3.709,4.707,5.847c4.492,2.14,5.836,2.17,5.836,2.17"/>
	
		<path id="download_1_" fill="none" stroke="#000000" stroke-width="2" stroke-linecap="round" stroke-linejoin="round" stroke-miterlimit="10" d="
		M733.649,1491.433c0,0-7.177-1.007-13.885-0.806c-1.749,0.052-2.682,1.476-2.682,4.562c0,3.084,0.804,12.877,0.133,20.925
		c-0.671,8.049-0.939,19.854,1.342,19.989c2.281,0.132,12.341,1.071,20.657,0.937c8.316-0.133,18.377-0.133,19.852-0.133
		c1.478,0,2.952-2.414,2.952-9.123c0-6.706-0.805-22.668-0.805-29.107c0-6.438,2.012-7.781-4.427-7.914
		c-6.44-0.135-17.305-0.671-17.305,0.805s0.229,14.825,0.521,21.059c0.285,6.105,0.621,10.6,0.621,10.6s4.309-9.895,10.094-14.421
		c1.163-0.911-5.533,1.609-11.451,1.54c-4.956-0.059-9.878-2.395-9.878-2.395s3.146,5.074,5.064,8.434
		c3.219,5.635,5.348,12.089,5.348,12.089"/>
	
		<path id="settings_1_" fill="none" stroke="#000000" stroke-width="2" stroke-linecap="round" stroke-linejoin="round" stroke-miterlimit="10" d="
		M538.735,1508.824c0,0-7.252-0.428-2.978-10.535c2.703-6.391,3.93-7.732,8.503-5.964c5.3,2.049,8.481-2.532,7.855-6.483
		c-0.622-3.951,0.169-6.463,8.417-6.669c8.744-0.222,9.178,2.185,9.326,6.329c0.15,4.142,4.047,4.123,8.585,1.955
		c4.536-2.168,6.648-2.1,10.483,3.079c3.835,5.182,5.404,8.512,1.968,10.687c-3.434,2.173-7.501,5.436-2.035,7.76
		c5.466,2.322,6.967,4.984,3.892,10.927c-3.077,5.944-5.79,8.555-9.338,7.04c-3.549-1.516-6.89,1.215-6.207,4.98
		c0.684,3.77-0.833,6.683-7.493,7.807c-6.661,1.122-10.866-1.087-11.092-6.04c-0.226-4.951-4.67-4.53-8.18-1.994
		c-3.51,2.535-6.934,0.821-10.834-4.188c-3.901-5.011,14.461-39.606,31.259-27.205c13.896,10.26-3.796,26.674-12.965,17.441
		c-9.95-10.021,6.3-21.43,12.801-12.061"/>
	
		<path id="clock_1_" fill="none" stroke="#000000" stroke-width="2" stroke-linecap="round" stroke-linejoin="round" stroke-miterlimit="10" d="
		M405.39,1512.683c0,0-13.514-0.747-15.292-0.337c-3.488,0.805-1.29,6.658,1.945,3.287c1.609-1.678,0.938-8.453,0.938-15.695
		c0-7.244,0.468-10.477-1.106-10.564c-4.014-0.223-22.892,4.207-22.669,22.271c0.224,18.064,16.059,24.979,26.54,23.195
		c10.484-1.783,24.4-10.219,20.777-30.608c-3.394-19.11-25.625-24.722-40.539-15.177c-16.85,10.783-15.858,35.178-1.928,45.963
		c13.93,10.784,43.414,7.235,46.996-17.339c3.844-26.366-22.101-27.667-22.101-27.667"/>
	
		<path id="bulb_1_" fill="none" stroke="#000000" stroke-width="2" stroke-linecap="round" stroke-linejoin="round" stroke-miterlimit="10" d="
		M225.476,1539.085c0,0-1.203,1.711-7.248,1.711c-6.162,0-11.43-6.141-1.479-5.867c12.917,0.358,19.375-4.442,4.857-5.035
		c-19.595-0.8-23.583-7.52-3.379-6.599c20.623,0.938,20.8-4.303,10.589-5.501c-11.61-1.361-7.036-21.893,1.442-20.844
		c5.747,0.71,5.393,8.116-11.91,8.116c-13.746,0-15.287-8.887-8.887-8.355c6.969,0.582,8.7,19.677-1.185,20.621
		c-12.709,1.214-22.485-20.745-6.968-37.329c18.216-19.467,57.29,3.815,37.605,33.526"/>
	
		<path id="soccer" fill="none" stroke="#000000" stroke-width="2" stroke-linecap="round" stroke-linejoin="round" stroke-miterlimit="10" d="
		M1091.103,1721.253c0,0-8.377,1.005-11.001-9.286c-2.2-8.624-13.289-5.634-13.465,1.32c-0.136,5.351,4.884,8.447,9.373,6.733
		c5.129-1.961,33.168-20.301,37.449-47.351c7.746-48.933,35.292-42.289,35.292-42.289s-28.031,16.192-41.32,16.634
		c-11.338,0.375-12.188-15.093-6.821-16.412c8.778-2.161,10.209,15.312-0.176,18.129c-10.386,2.816-15.667,30.98-15.667,30.98
		s10.826-24.732,10.826-12.499c0,8.198-15.443,26.729-11.662,29.968c4.621,3.96,15.271-11.309,15.271-11.309"/>
	
		<path id="tennis" fill="none" stroke="#000000" stroke-width="2" stroke-linecap="round" stroke-linejoin="round" stroke-miterlimit="10" d="
		M1445.788,1862.218c0,0,7.728,2.749,9.167,9.43c1.458,6.754-5.453,23.546-5.148,23.222c3.881-4.146,17.859-22.814,10.912-31.343
		c-28.813-35.357-49.549-19.054-53.038-32.739c-1.941-7.616,6.155-17.156,13.356-25.667c4.767-5.63,5.593-11.397,0.132-11.697
		c-8.255-0.455-9.952,10.387-10.738,20.996c-1.004,13.562,1.179,19.118,11.437,15.67c11.897-4,14.034-15.017,8.666-19.601
		c-6.833-5.831-14.275,6.941,0.065,13.49c11.284,5.151,11.524-50.985,11.524-50.985s10.868,69.581-9.43,102.581
		c-6.955,11.309-14.316,21.042-14.316,21.042"/>
	
		<path id="car" fill="none" stroke="#000000" stroke-width="2" stroke-linecap="round" stroke-linejoin="round" stroke-miterlimit="10" d="
		M1378.512,1702.692c0,0-4.737-1.803-1.895-7.3c4.927-9.522,15.354,11.801,3.412,11.801c-13.504,0-9.047-26.625,7.25-16.774
		c9.523,5.757-1.285,15.037,19.901,14.785c27.72-0.333,29.425-5.45,45.536,1.468c10.707,4.6,20.564-3.316,16.725-13.979
		c-4.091-11.372-20.898-6.646-20.422,4.027c0.428,9.525,12.938,9.229,12.32-0.758c-0.756-12.226-29.727-7.362-45.567-3.139
		c-9.343,2.492-19.046,6.321-22.883-7.04c-2.069-7.207-3.696-15.491-19.187-8.097c-6.811,3.249,0.562,9.254,22.707,4.928
		c18.195-3.554,29.044-13.729,33.184-6.838c2.328,3.875-1.99,4.927,4.265,7.392s22.933-2.464,12.698-9.477
		c-8.929-6.117-15.999,11.607-1.043,10.709c9.478-0.568,26.346-2.748,43.403-1.232c17.059,1.516,28.797,8.462,17.248,9.003
		c-14.12,0.664-5.401,13.837-20.754,12.51c-15.353-1.326-16.585-11.088,0.663-8.813c17.247,2.273,17.352,4.96,29.568,4.833
		c12.519-0.131,5.391-3.696,5.391-3.696"/>
	
		<path id="golf" fill="none" stroke="#000000" stroke-width="2" stroke-linecap="round" stroke-linejoin="round" stroke-miterlimit="10" d="
		M1652.676,1662.948c0,0-4.225,15.754,3.661,8.725c1.266-4.148-37.986-32.313-41.086-34.161c-2.092-0.967-3.81,8.977,3.584,5.94
		c5.898-2.424-0.925-14.521-7.525-6.732c-6.6,7.79-11.616,22.971,4.094,12.541c10.771-7.149,27.651,1.298,24.555-11.353
		c-3.169-12.938-15.433-2.862-9.374,6.997c5.193,8.447,24.205-11.795,3.828,48.449c-4.833,14.289-0.066,40.139,1.893,31.992
		c3.434-14.257,0-35.291-9.24-18.657c-9.265,16.676-19.23,25.009-19.188,24.948c5.167-7.229,15.578-25.829,12.675-46.16
		c-1.371-9.612,3.718-14.022,3.169-18.922c-1.584-14.126-11.221-10.825-11.221-10.825"/>
	
		<path id="rugby" fill="none" stroke="#000000" stroke-width="2" stroke-linecap="round" stroke-linejoin="round" stroke-miterlimit="10" d="
		M1780.835,1657.867c0,0,1.797-7.309,5.389-7.06c4.679,0.321,6.179,19.119-1.672,19.012c-9.042-0.124-1.915-14.113,9.165-5.698
		c11.335,8.61,18.644-1.237,7.742-12.448c-8.254-8.487-16.284-7.873-14.059-16.906c2.106-8.548,17.067-6.595,11.953,6.193
		c-3.965,9.909-13.439,1.982-26.691,3.097c-10.01,0.841-19.324,14.862-19.324,14.862s24.463-14.429,22.604,9.726
		c-1.008,13.116,16.292,8.01,20.751,22.974c5.2,17.467-25.764,19.944-25.764,19.944s21.369-9.803,13.87-17.838
		c-13.87-14.863-23.162,35.055-23.162,35.055"/>
	
		<path id="baseball" fill="none" stroke="#000000" stroke-width="2" stroke-linecap="round" stroke-linejoin="round" stroke-miterlimit="10" d="
		M1119.811,1891.115c0,0-8.273-31.421-27.812-31.156c-19.538,0.264-18.57,29.044-18.57,29.044
		c1.566,8.268-4.708-37.406,23.675-57.075c12.642-8.762,17.074,4.884,0.132,10.956c-4.352,1.561-21.591-8.243-19.67-7.259
		c-7.138-3.001-4.325-11.491,3.168-8.318c-3.759-2.311,6.09-27.658,7.109-30.21c1.02-2.549,5.008-1.193,3.732,1.417
		c-1.045,2.14-26.947,61.532-14.802,43.711c5.371-7.882-4.947-0.116-6.601-0.792c-6.973-2.851-13.524-13.175,0.368-15.813
		c13.893-2.64,18.51,1.203,22.868,2.392c4.355,1.189,9.959-2.959,7.458-12.19c-2.574-9.505-17.426,0.726-8.978,4.818
		c6.43,3.117,17.492-0.263,13.795-2.311c-3.507-1.939-9.768,0.267-9.768,0.267"/>
	
		<path id="volley" fill="none" stroke="#000000" stroke-width="2" stroke-linecap="round" stroke-linejoin="round" stroke-miterlimit="10" d="
		M1291.79,1619.602c0,0-12.227,25.584-29.96,30.323c-30.92,8.268-12.697-11.143-12.697-11.143s-24.846,13.337,3.744,23.566
		c6.253,2.237,8.491,11.946,7.902,23.793c-1.507,30.281-17.401-5.434-17.401-5.434s4.431,12.833,14.386,12.833
		c11.371,0,12.468-11.372,12.468-11.372s5.847,7.124-1.917,15.894c-7.544,8.52-15.619,8.403-15.619,8.403
		s32.454,0.352,27.813-26.078c-3.151-17.948-33.477-39.322-21.922-45.488c6.922-3.694,8.358,5.435,6.531,9.454"/>
	
		<path id="cycling" fill="none" stroke="#000000" stroke-width="2" stroke-linecap="round" stroke-linejoin="round" stroke-miterlimit="10" d="
		M1250.209,1882.646c0,0-8.978,14.702-24.381,7c-10.751-5.376-12.417-22.462,0.625-30.381
		c17.504-10.628,31.133,18.254,24.131,17.379c-7.001-0.876-16.753-0.75-14.128-5.753c2.625-4.999,8.877-16.378,16.129-18.377
		c7.251-2.001,26.276-2.367,24.254,1.249c-2.375,4.251-20.004,27.381-19.503,22.379c0.5-5,12.252-27.629,5.376-30.506
		c-6.877-2.877-20.005-2-22.255-7.751c-2.251-5.751,7.017-18.709,19.629-17.004c13.878,1.875,12.628,6.877,16.504,10.503
		c3.876,3.626,12.627-3.251,7.876-9.628c-4.751-6.375-13.128-8.752-12.752,1.126c0.375,9.877-3.125,23.63,2.25,24.38
		c5.376,0.75,16.002,2.75,17.628-1.251c1.626-4-8.251-7.126-9.002,5.753c-0.749,12.877,8.128,0.249,18.13,12.376
		s2.233,24.572-7.502,27.632c-8.752,2.75-17.148-2.539-20.88-10.003c-5.251-10.502,4.75-33.382,15.504-6.376"/>
	
		<path id="basketball" fill="none" stroke="#000000" stroke-width="2" stroke-linecap="round" stroke-linejoin="round" stroke-miterlimit="10" d="
		M1621.999,1798.053c0,0,3.68,2.648,7.407-3.187c4.132-6.467-3.529-14.516-10.59-10.004c-7.063,4.511,0.587,20.204,6.471,34.521
		c5.887,14.32-10.51,47.068-25.794,55.606c-15.005,8.387-25.001,15.377-25.001,15.377s24.315-6.745,31.965-10.178
		c9.902-4.445,12.161-5.053,12.161-5.053s-6.326,8.977-9.857,15.596c-3.612,6.777-8.386,12.504-8.386,12.504
		s16.472-12.311,27.658-27.949c16.381-22.897,15.739-36.19,11.377-43.938c-3.94-6.996-3.753-16.589,2.45-15.35
		c4.782,0.958,6.914,3.605,7.429,9.121c0.516,5.5-4.339,6.914-4.339,6.914"/>
	
		<path id="swim" fill="none" stroke="#000000" stroke-width="2" stroke-linecap="round" stroke-linejoin="round" stroke-miterlimit="10" d="
		M1732.479,1884.824c7.569,0.967,12.277-1.013,12.277-1.013s0.925,1.055,8.714,0.66c7.789-0.396,5.807-4.357,5.807-4.357
		s4.887,3.828,10.167,2.378c5.28-1.453,2.472-4.086,13.2-10.432c10.122-5.984,21.389,3.961,8.582,8.187
		c-12.806,4.225-19.759-0.087-6.558-11.44c13.201-11.354,24.302-5.72,39.868-4.314c9.265,0.836,11.443,11.2,0.354,7.306
		c-9.579-3.362-5.634-6.425-21.784-14.391c-6.992-3.447-9.824-5.335-20.197,3.168c-11.002,9.021-29.043,17.735-29.043,17.735
		s-4.006-1.849-5.985-1.849c-1.981,0-5.897,2.244-8.273,2.64s-2.742-0.265-5.72-0.265c-2.487,0-5.729,1.812-8.979,2.112
		c-7.569,0.706-13.553-0.88-13.553-0.88"/>
	
		<path id="ray" fill="none" stroke="#000000" stroke-width="2" stroke-linecap="round" stroke-linejoin="round" stroke-miterlimit="10" d="
		M156,1361.993c0,0,21.182-4.034,31.36-6.647c4.233-1.087,0.481-6.602,4.882-6.602c4.401,0,13.411,3.988,20.425-5.915
		s-1.925-20.013,6.602-15.679c5.033,2.557,9.21,13.845,19.531,15.885c18.087,3.576,24.622,19.03,22.65,9.605
		c-1.262-6.029-21.228-6.073-12.288-0.091c4.116,2.753,13.502,5.479,9.857,8.573c-4.123,3.5-14.029-2.201-20.769-1.65
		c-6.739,0.55-20.498,8.703-33.56,7.151c-13.892-1.65-11.691-13.616-9.49-13.204c2.201,0.413,12.378,10.729,29.571,6.74"/>
	
		<path id="dolphin_1_" fill="none" stroke="#000000" stroke-width="2" stroke-linecap="round" stroke-linejoin="round" stroke-miterlimit="10" d="
		M1769.942,1340.588c0,0-3.106,2.509-6.453,5.377c-6.048,5.186-9.957,13.902-7.727,17.249s9.108,4.142,8.819,7.179
		c-0.226,2.369-6.435-0.792-12.115-0.189c-4.589,0.485-13.849,6.471-12.27,2.559c1.58-3.912,5.765-6.121,8.314-11.779
		c2.55-5.655,1.913-17.048,5.498-24.936c3.586-7.887,10.56-16.348,9.002-16.731c-2.606-0.644-4.833-2.122-0.032-3.219
		c3.186-0.727,6.089-0.605,12.303-3.234c6.215-2.629,13.146-4.701,20.314-2.788c7.172,1.911,9.241,4.143,10.039,7.25
		c0.718,2.788,6.771,2.708,6.533,5.975c-0.197,2.698-7.17,2.389-10.597,2.389c-3.505,0-8.764,1.754-10.277,6.058
		c-1.513,4.302-0.318,11.394,1.674,10.356s8.887-15.164-0.918-17.529c-6.692-1.611-18.225,1.794-22.287,7.77
		c-3.136,4.61-1.436,10.038,14.521-4.48"/>
	
		<path id="swordfish" fill="none" stroke="#000000" stroke-width="2" stroke-linecap="round" stroke-linejoin="round" stroke-miterlimit="10" d="
		M526.927,1309.269c0,0,22.007,4.952,36.586,13.298c7.134,4.081-1.19,3.941-4.767,2.658s-4.493-5.228,8.252-5.595
		c12.746-0.365,11.829-2.841,15.771-6.967c3.943-4.127,6.327-3.852,6.327-3.852s-5.318,6.785-1.1,13.661
		c4.218,6.878,11.873,22.739,3.851,37.229c-11.371,20.538-25.584,17.237-27.144,21.089c-1.559,3.852,0,2.844-1.742,9.446
		c-1.742,6.602-5.409,9.81-5.409,9.81s14.946-7.336,11.554-20.356c-3.393-13.021-19.897-14.579-19.897-14.579
		s10.269,6.603,12.744,9.354c2.476,2.75,16.871-0.418,17.973-14.946c1.099-14.489-4.952-22.374-9.353-23.565
		c-4.401-1.191-0.368,11.828-0.368,11.828s2.568-12.93,11.921-13.388c7.89-0.386,17.33,7.61,17.33,7.61s-11.737-3.667-16.689-1.467"
		/>
	
		<path id="starfish" fill="none" stroke="#000000" stroke-width="2" stroke-linecap="round" stroke-linejoin="round" stroke-miterlimit="10" d="
		M386.752,1346.908c0,0-1.375,3.313,1.999,2.938c3.374-0.374,4.132-5.836-0.375-7.311c-5.155-1.686-10.685,8.997-1.405,12.372
		c9.086,3.305,10.981-7.071,9.653-11.436c-1.312-4.312-2.728-6.929-4.154-13.064c-1.426-6.134-3.781-14.121-7.204-17.117
		c-3.424-2.997-0.261,4.456-0.452,11.718c-0.116,4.432-0.904,12.105-3.472,13.674c-2.567,1.57-9.843,5.137-15.977,1.57
		c-6.134-3.568-5.706-10.985-4.423-12.412c1.285-1.427,2.426,0.571,1.999,5.278c-0.429,4.707,1.426,12.649,11.792,16.834
		c3.751,1.514,3.613,6.656,2.568,9.796c-1.687,5.059-6.848,18.163-7.704,20.731c-0.855,2.568,1.331,1.521,4.47-2.758
		c3.139-4.279,6.942-9.844,10.081-13.695c3.138-3.852,7.988-5.801,11.412-1.236c3.424,4.565,10.318,12.124,12.744,15.406
		c2.424,3.282,3.804,0.666,0.096-6.181c-3.709-6.849-8.921-19.816-2.765-22.219c4.019-1.569,12.791-1.844,20.208-2.795
		c1.999-0.256,1.048-2.252-2.296-2.411c-14.467-0.688-25.222-8.458-25.222-8.458"/>
	
		<path id="seahorse" fill="none" stroke="#000000" stroke-width="2" stroke-linecap="round" stroke-linejoin="round" stroke-miterlimit="10" d="
		M741.486,1372.998c0,0,0.543-0.681,1.191-0.551c1.375,0.274,2.109,2.934-0.641,3.393c-2.751,0.459-5.043-2.659-3.026-6.144
		c2.018-3.484,8.986-1.926,8.71,4.311c-0.275,6.233-8.619,10.543-13.846,3.574c-5.227-6.968,4.769-23.474,4.31-31.083
		c-0.458-7.612-6.327-11.464-5.96-2.661c0.367,8.804,8.251,11.188,3.943-7.884c-4.309-19.074,1.467-24.85,6.144-27.234
		c4.677-2.384,7.886-1.558,10.729,1.192c2.842,2.752,2.75,3.302,2.108,6.418c-0.463,2.246-4.584,1.605-3.942-0.915
		c0.522-2.053,3.901-2.314,6.143,2.658c2.522,5.594,4.902,9.021,6.695,5.914c2.063-3.576-3.597-1.205-12.792-3.37
		c-7.015-1.65-7.564,0.894-6.052,3.05c3.605,5.133,9.215,8.803,7.29,18.063c-1.267,6.093-5.57,8.803-9.697,15.336
		c-1.679,2.655-3.852,6.602-3.852,6.602"/>
	
		<path id="orca" fill="none" stroke="#000000" stroke-width="2" stroke-linecap="round" stroke-linejoin="round" stroke-miterlimit="10" d="
		M928.976,1340.004c0,0-5.108,1.818-10.124,4.935c-6.605,4.104-15.227,10.633-11.112,11.108c8.644,1.659,22.323-4.583,19.806-10.306
		c-2.321-5.275-26.04-14.51-36.065-7.898c-9.368,6.177,25.207,3.333,1.633,12.862c-9.551,3.859-19.504,3.388-24.733,11.972
		c-2.937,4.818-4.964,11.276-15.09,13.988c-15.405,4.126,4.539-5.776,4.834-11.591c0.299-5.873-4.674-8.854-1.907-7.641
		c14.09,6.179,14.128-28.442,47.271-36.71c6.947-1.733,8.836-4.87,8.317-8.969c-0.523-4.13-4.541-9.764-2.581-9.729
		c1.959,0.034,7.19,5.562,10.819,11.636c2.921,4.893,21.253,10.072,29.365,17.341c8.142,7.298,7.989,16,8.436,18.995
		c0.478,3.206,0.095,4.332-1.348,5.14c-1.441,0.806-7.262-4.89-11.004-8.246c-4.51-4.044-13.964-14.897-5.402-12.05
		c7.971,2.653,9.882,6.074,3.814,8.229c-11.333,4.023-8.164,9.595,0.075,12.315c6.426,2.122,7.228,1.174,7.228,1.174"/>
	
		<path id="sealion" fill="none" stroke="#000000" stroke-width="2" stroke-linecap="round" stroke-linejoin="round" stroke-miterlimit="10" d="
		M1633.233,1359.375c0,0,1.949,2.527,8.14,3.263c7.482,0.892,6.529-1.425,1.125-3.601c-5.402-2.177-6.858-9.638-16.585-8.105
		c-10.958,1.726-17.636,9.308-11.406,13.059c6.228,3.752,14.338,7.412,13.732,2.927c-1.65-12.232,9.547-18.658,6.305-34.223
		c-3.377-16.21,5.857-8.231,7.28-14.709c0.675-3.077-2.763-2.394-7.355-5.328c-12.459-7.955-11.558,21.987-37.149,29.419
		c-22.241,6.457-17.02,21.844-26.567,19.736c-5.102-1.125,2.627-5.372,5.705-6.753c4.354-1.952,7.419,5.918,13.733,8.179
		c5.028,1.803,2.028,2.642-2.776,3.079c-6.985,0.635-8.592-2.006-8.592-2.006"/>
	
		<path id="narwhal" fill="none" stroke="#000000" stroke-width="2" stroke-linecap="round" stroke-linejoin="round" stroke-miterlimit="10" d="
		M1271.172,1365.606c0,0-3.209,3.007-6.878,4.739c-3.988,1.881-7.566,0.943-8.942,1.02c-1.375,0.076,6.675-7.006,7.133-11.516
		c0.459-4.509,8.204-8.891,9.274-4.993c1.069,3.898-8.153,10.215-17.63,9.146c-9.477-1.069-23.616-10.395-27.743-15.362
		c-4.127-4.967-7.49-10.165-12.611-9.859s-7.261-0.076-10.852-0.84c-3.592-0.765,2.598,5.732,9.477,5.808
		c6.878,0.077,6.267-4.127,12.457-2.675c6.191,1.452,19.336,5.885,33.169,3.515c13.833-2.368,23.616-8.405,30.495-4.661
		c6.879,3.746,20.739-3.617,34.19-11.973c35.094-21.8,33.628-23.846-1.326-3.465c-16.214,9.455-25.756,11.922-28.584,21.322
		c-2.828,9.401-7.414,9.554-11.387,12.534c-3.975,2.981-1.299,4.128-2.522,8.483c-1.223,4.357-4.415,6.169-4.415,6.169"/>
	
		<path id="pearloyster" fill="none" stroke="#000000" stroke-width="2" stroke-linecap="round" stroke-linejoin="round" stroke-miterlimit="10" d="
		M1429.085,1356.405c0,0,2.155,1.021,3.29-0.341s0.469-3.813-3.063-3.402c-4.08,0.474-4.009,6.812,0.227,7.939
		c3.402,0.908,7.299-0.59,7.637-3.881c0.342-3.288-1.424-7.204-6.877-7.014c-6.465,0.229-6.793,9.057-16.791,8.747
		c-5.962-0.184-7.32-3.195-7.629-5.875c-0.309-2.681,3.093-2.576,4.535-5.259c1.443-2.68-2.062-3.401,0.412-6.391
		c2.475-2.989,5.465-0.928,7.732-2.37c2.268-1.444-2.063-5.566,1.753-8.041c3.814-2.475,5.36,1.545,7.524,0.618
		c2.166-0.928-0.722-6.186,3.402-7.422c4.462-1.339,4.051,2.482,7.835,1.442c4.123-1.135,2.989-4.639,6.7-4.329
		s3.092,4.432,6.804,5.361c3.712,0.927,2.425-3.023,5.567-0.93c4.639,3.093,2.783,13.3,0,19.175
		c-2.784,5.876-10.584,10.774-12.854,11.805c-2.648,1.204-4.346-1.507-1.925-2.544c1.442-0.619,4.209,0.909,11.966,3.988
		c9.354,3.715,19.615,4.068,15.594,2.729c-4.02-1.34-1.957,2.475-4.74,4.537c-2.785,2.063-2.888-2.784-5.155-2.475
		c-2.47,0.337-3.299,4.021-5.876,4.433s-1.855-3.813-5.463-3.093c-3.609,0.723-1.547,3.505-5.155,4.329
		c-4.593,1.052-2.886-2.062-7.112-2.37c-4.228-0.31-3.299,3.918-16.598,2.989c-11.837-0.825-13.607-7.629-13.607-7.629
		c-0.206,5.567,4.581,12.574,30.783,12.437c16.711-0.089,24.758-5.02,24.758-5.02"/>
	
		<path id="jellyfish" fill="none" stroke="#000000" stroke-width="2" stroke-linecap="round" stroke-linejoin="round" stroke-miterlimit="10" d="
		M1059.625,1360.985c0,0-5.227-17.605,9.628-14.304c14.855,3.301,27.351,6.314,30.442-1.194c2.889-7.014-9.51-7.28-17.789,2.294
		c-7.611,8.802-2.109,15.358-9.719,20.906c-7.167,5.223-16.597,0.366-16.597,0.366s13.341,1.01,15.542-4.768
		c2.201-5.776-0.441-22.288,11.003-27.096c12.333-5.182,33.01-0.412,35.004,11.554c1.097,6.583-14.144-1.055-25.972,11.599
		c-8.073,8.637-5.318,25.857-5.318,25.857s1.109-27.136,18.086-27.347c16.574-0.206,32.162,2.729,25.927-16.506
		c-4.542-14.006-18.109-20.976-31.818-18.592c-14.101,2.454-34.015,14.699-7.519,21.273c12.929,3.21,16.597,9.813,13.296,16.231
		c-5.106,9.927-20.631-0.093-29.617,13.387"/>
</g>
<g id="differantly.com">
	
		<path id="oneline" fill="none" stroke="#000000" stroke-width="2" stroke-linecap="round" stroke-linejoin="round" stroke-miterlimit="10" d="
		M1911.284,29.147c0,0-9.353,7.131-6.042,15.875c4.62,12.203,21.798,2.37,18.718-6.516c-2.676-7.719-10.478-4.947-7.7,0.119
		c2.014,3.672,9.359-3.08,14.927-2.843c7.935,0.337-0.118,14.453-0.118,14.453s5.687-15.045,10.781-14.453
		c5.094,0.592-6.397,15.757,4.976,15.045c11.373-0.71,20.14-16.585,12.676-16.822c-7.463-0.237-15.279,15.427,6.397,17.771
		c4.384,0.474,3.91,4.62-12.202,8.016c-15.094,3.182-37.916,8.297-42.412,6.437c-4.104-1.698-0.237-6.397,2.37-4.383
		c3,2.319-1.659,4.857-10.544,7.345c-3.407,0.954-27.072,7.968-26.024,15.677c1.619,11.926,23.496-6.042,25.55-26.458
		c1.209-12.023-12.557-8.174-13.269,10.781c-0.711,18.956,8.53,24.257,13.624,17.223c5.095-7.035,6.397-12.365,6.397-12.365
		s-3.788,15.109,2.369,14.809c4.856-0.237,6.635-13.861,12.914-14.69c5.021-0.663,0.828,14.334,0.828,14.334
		s2.844-15.045,8.411-15.993c5.568-0.948-5.001,15.244,6.397,15.993c9.005,0.593,22.503-17.917,11.968-17.543
		c-6.992,0.247-15.284,15.885,10.305,18.492"/>
</g>
</svg>
